/* XPM */
static char * p3dview_xpm[] = {
"32 32 573 2",
"  	c #F7F9F4",
". 	c #F8F8F6",
"+ 	c #F9F7FA",
"@ 	c #F9F7FC",
"# 	c #F8F8F8",
"$ 	c #F7F9F8",
"% 	c #F7F9F6",
"& 	c #F5F9FA",
"* 	c #F8F7F3",
"= 	c #FFF4F0",
"- 	c #FFEAEC",
"; 	c #FFDDDD",
"> 	c #EC5254",
", 	c #C01817",
"' 	c #E15556",
") 	c #FFEEEC",
"! 	c #F9F8F6",
"~ 	c #F9F7F8",
"{ 	c #F6F7F9",
"] 	c #F5F9FC",
"^ 	c #FBF7F8",
"/ 	c #FBF7F6",
"( 	c #F8F8FA",
"_ 	c #F7F8FA",
": 	c #FFF5F6",
"< 	c #FFF2F1",
"[ 	c #FFE5E3",
"} 	c #C26465",
"| 	c #A62426",
"1 	c #C61618",
"2 	c #CE1211",
"3 	c #BF1919",
"4 	c #A62122",
"5 	c #BE6665",
"6 	c #FFE5E4",
"7 	c #FFEDEE",
"8 	c #FFF1F3",
"9 	c #FDF9FA",
"0 	c #F7F8FC",
"a 	c #FFF4F4",
"b 	c #FFEEF0",
"c 	c #FFE2E3",
"d 	c #D45A59",
"e 	c #BA1B18",
"f 	c #CD1112",
"g 	c #DC0A0D",
"h 	c #E70708",
"i 	c #E90506",
"j 	c #E70809",
"k 	c #DD0B0C",
"l 	c #D10E12",
"m 	c #BC191C",
"n 	c #D15F5E",
"o 	c #FFE2DF",
"p 	c #F7F7F9",
"q 	c #F8F9F4",
"r 	c #FFF0EF",
"s 	c #B96867",
"t 	c #9F2426",
"u 	c #B42020",
"v 	c #C91516",
"w 	c #E1090C",
"x 	c #F20306",
"y 	c #F50103",
"z 	c #F90101",
"A 	c #F80000",
"B 	c #F30002",
"C 	c #E8070B",
"D 	c #CC1416",
"E 	c #9D2524",
"F 	c #7A3633",
"G 	c #FFF1F1",
"H 	c #FBF9FC",
"I 	c #F5F9F8",
"J 	c #FBF7F4",
"K 	c #FFEAE6",
"L 	c #B31D1C",
"M 	c #C7191A",
"N 	c #D4595C",
"O 	c #9F2427",
"P 	c #C61619",
"Q 	c #DE070C",
"R 	c #EF0305",
"S 	c #F50000",
"T 	c #F90100",
"U 	c #E80806",
"V 	c #C71515",
"W 	c #A02625",
"X 	c #A96F6E",
"Y 	c #110000",
"Z 	c #070000",
"` 	c #FAF6F7",
" .	c #FFE7E3",
"..	c #CA1210",
"+.	c #D70F0F",
"@.	c #4D0000",
"#.	c #3B0000",
"$.	c #BE1B1C",
"%.	c #DC0C0C",
"&.	c #E30806",
"*.	c #D40E0B",
"=.	c #BA1815",
"-.	c #CF5E5A",
";.	c #300000",
">.	c #0F0000",
",.	c #000002",
"'.	c #050102",
").	c #FCF8F9",
"!.	c #F8F7FC",
"~.	c #FFE6E5",
"{.	c #CB1311",
"].	c #D50F0C",
"^.	c #CD615F",
"/.	c #2A0000",
"(.	c #240000",
"_.	c #3C0000",
":.	c #F14F4D",
"<.	c #C01B19",
"[.	c #C36462",
"}.	c #1B0000",
"|.	c #060000",
"1.	c #030102",
"2.	c #010002",
"3.	c #FAF8FB",
"4.	c #CB1313",
"5.	c #DB0908",
"6.	c #AF211F",
"7.	c #420000",
"8.	c #2D0000",
"9.	c #3E0000",
"0.	c #BD1B19",
"a.	c #B21C1D",
"b.	c #230000",
"c.	c #000000",
"d.	c #000100",
"e.	c #010000",
"f.	c #040203",
"g.	c #F8F6F7",
"h.	c #F9F9F7",
"i.	c #FFE5E6",
"j.	c #CC1215",
"k.	c #EE0204",
"l.	c #E00C0B",
"m.	c #CA130F",
"n.	c #6C0000",
"o.	c #BC1A17",
"p.	c #DB0B0B",
"q.	c #C51719",
"r.	c #270000",
"s.	c #000004",
"t.	c #010100",
"u.	c #020202",
"v.	c #FAF9F5",
"w.	c #F6F8F5",
"x.	c #F5FAF6",
"y.	c #F8FAF7",
"z.	c #F6F6F4",
"A.	c #FCF8F7",
"B.	c #FAF6F5",
"C.	c #FAF9F7",
"D.	c #F9F9FB",
"E.	c #FFE5E9",
"F.	c #CC1217",
"G.	c #F30306",
"H.	c #E70707",
"I.	c #D90E0A",
"J.	c #C81511",
"K.	c #CE1210",
"L.	c #ED090A",
"M.	c #CB1114",
"N.	c #F7F8F3",
"O.	c #FAFCF9",
"P.	c #F3F7F6",
"Q.	c #F8FAF9",
"R.	c #FAFAFA",
"S.	c #F8F7F5",
"T.	c #FBFAF8",
"U.	c #FBF9FA",
"V.	c #FAF8F9",
"W.	c #FAFAFC",
"X.	c #FFE4E7",
"Y.	c #E60408",
"Z.	c #7E0000",
"`.	c #B71E20",
" +	c #AD1F1E",
".+	c #740000",
"++	c #E40404",
"@+	c #CF1111",
"#+	c #2B0000",
"$+	c #030000",
"%+	c #030200",
"&+	c #F7F5F8",
"*+	c #F8F6F9",
"=+	c #F4F9F5",
"-+	c #F0FCF2",
";+	c #FFEDE5",
">+	c #C31A17",
",+	c #D60F12",
"'+	c #5B0000",
")+	c #8C2E2F",
"!+	c #892F2F",
"~+	c #E10D0A",
"{+	c #CE110F",
"]+	c #020204",
"^+	c #020100",
"/+	c #F7F8FD",
"(+	c #F9F8FF",
"_+	c #F5F4FF",
":+	c #F8F7FD",
"<+	c #F6F8F7",
"[+	c #F9F9F9",
"}+	c #EFFFF2",
"|+	c #DFFFE2",
"1+	c #FFF9D6",
"2+	c #AA2013",
"3+	c #BA1C1B",
"4+	c #320000",
"5+	c #140000",
"6+	c #D00D09",
"7+	c #D01412",
"8+	c #000200",
"9+	c #010103",
"0+	c #F4F6FF",
"a+	c #F1F5FF",
"b+	c #F0F4FF",
"c+	c #F7F9FF",
"d+	c #F7F7F7",
"e+	c #FBFDFC",
"f+	c #F5F7F6",
"g+	c #F6F5FA",
"h+	c #F3F8F4",
"i+	c #F1FFF2",
"j+	c #E9FFEA",
"k+	c #DFFFE1",
"l+	c #D0FFD4",
"m+	c #4BAA4C",
"n+	c #6FAF4E",
"o+	c #9D8034",
"p+	c #76450B",
"q+	c #010600",
"r+	c #000B00",
"s+	c #000500",
"t+	c #CD1411",
"u+	c #CD1110",
"v+	c #000201",
"w+	c #000106",
"x+	c #000013",
"y+	c #000022",
"z+	c #000032",
"A+	c #7779C4",
"B+	c #0E1275",
"C+	c #7378D4",
"D+	c #F1F1FF",
"E+	c #F2F2FF",
"F+	c #F2F3FF",
"G+	c #F6F8FF",
"H+	c #FAF8FD",
"I+	c #E3FFE3",
"J+	c #CFFFCD",
"K+	c #3BB03D",
"L+	c #35D036",
"M+	c #25E128",
"N+	c #23DF19",
"O+	c #3CD616",
"P+	c #4CC925",
"Q+	c #46AA36",
"R+	c #001E00",
"S+	c #CC1414",
"T+	c #CA1212",
"U+	c #000015",
"V+	c #000040",
"W+	c #7372E9",
"X+	c #0A0AAA",
"Y+	c #0506C2",
"Z+	c #0305CC",
"`+	c #0807C4",
" @	c #0D09A4",
".@	c #7774E7",
"+@	c #F1F4FF",
"@@	c #F8F8FF",
"#@	c #DAFFDB",
"$@	c #D6FFD6",
"%@	c #4FA14F",
"&@	c #4CC34B",
"*@	c #2DDB2C",
"=@	c #15EA16",
"-@	c #07F408",
";@	c #00F801",
">@	c #03F900",
",@	c #10EF0B",
"'@	c #2DDA29",
")@	c #5B965C",
"!@	c #130000",
"~@	c #A4231D",
"{@	c #A92121",
"]@	c #220000",
"^@	c #000007",
"/@	c #000016",
"(@	c #7878B6",
"_@	c #110E8F",
":@	c #0706BA",
"<@	c #0303E1",
"[@	c #0000F4",
"}@	c #0101F9",
"|@	c #0000EE",
"1@	c #0603DA",
"2@	c #0805B4",
"3@	c #0F0F87",
"4@	c #7678C2",
"5@	c #F3F3FF",
"6@	c #F7F6FF",
"7@	c #2FBA2B",
"8@	c #3FCE3E",
"9@	c #39CF3A",
"0@	c #2CD92F",
"a@	c #12E912",
"b@	c #07F406",
"c@	c #04F803",
"d@	c #02F801",
"e@	c #00F900",
"f@	c #05F401",
"g@	c #12F00F",
"h@	c #28DE27",
"i@	c #48C24B",
"j@	c #74AB68",
"k@	c #917D65",
"l@	c #9F7372",
"m@	c #0B0000",
"n@	c #807E94",
"o@	c #131359",
"p@	c #0E108B",
"q@	c #0706C4",
"r@	c #0302E4",
"s@	c #0001F4",
"t@	c #0000F6",
"u@	c #0101F5",
"v@	c #0403DA",
"w@	c #0708B8",
"x@	c #0D0D8F",
"y@	c #14115E",
"z@	c #7E7AAD",
"A@	c #26DF21",
"B@	c #28D926",
"C@	c #22C325",
"D@	c #30D634",
"E@	c #24E324",
"F@	c #17E916",
"G@	c #10EE0D",
"H@	c #0CEF0A",
"I@	c #12EE10",
"J@	c #1DDF1E",
"K@	c #35D535",
"L@	c #3CAE3D",
"M@	c #000C00",
"N@	c #000009",
"O@	c #00002C",
"P@	c #00006D",
"Q@	c #6B6BFF",
"R@	c #0503D0",
"S@	c #0404DE",
"T@	c #0304DA",
"U@	c #0304DB",
"V@	c #0302E2",
"W@	c #0303D5",
"X@	c #0708C4",
"Y@	c #090CA7",
"Z@	c #7172E8",
"`@	c #000041",
" #	c #23DE1F",
".#	c #35DA35",
"+#	c #003000",
"@#	c #002800",
"##	c #42AB46",
"$#	c #43C644",
"%#	c #28D927",
"&#	c #25E224",
"*#	c #31D632",
"=#	c #46C947",
"-#	c #4EA350",
";#	c #001700",
">#	c #001100",
",#	c #000A00",
"'#	c #000300",
")#	c #00000C",
"!#	c #000020",
"~#	c #000050",
"{#	c #0805B8",
"]#	c #0604D3",
"^#	c #6C6CFF",
"/#	c #6E6FFF",
"(#	c #0A09A2",
"_#	c #0A09AC",
":#	c #0605C2",
"<#	c #0808B8",
"[#	c #0F0F93",
"}#	c #7275D2",
"|#	c #000037",
"1#	c #00000E",
"2#	c #004700",
"3#	c #3AD039",
"4#	c #56BC58",
"5#	c #001D00",
"6#	c #001800",
"7#	c #002600",
"8#	c #1FC420",
"9#	c #2CDA2B",
"0#	c #39B03A",
"a#	c #001C00",
"b#	c #010302",
"c#	c #020001",
"d#	c #000010",
"e#	c #00002B",
"f#	c #110F7A",
"g#	c #0906C9",
"h#	c #0704D1",
"i#	c #0D0C98",
"j#	c #0F0E85",
"k#	c #726FFE",
"l#	c #706DFF",
"m#	c #0E0C9B",
"n#	c #7273E7",
"o#	c #00003F",
"p#	c #00001F",
"q#	c #010101",
"r#	c #003A00",
"s#	c #43C944",
"t#	c #4EC34E",
"u#	c #002400",
"v#	c #001F00",
"w#	c #28E02A",
"x#	c #24DE25",
"y#	c #002300",
"z#	c #000029",
"A#	c #111173",
"B#	c #0809B1",
"C#	c #000098",
"D#	c #7371DE",
"E#	c #120F80",
"F#	c #0A06BF",
"G#	c #000024",
"H#	c #54BD54",
"I#	c #47C645",
"J#	c #002F00",
"K#	c #001A00",
"L#	c #002200",
"M#	c #2BD72B",
"N#	c #32D733",
"O#	c #000021",
"P#	c #000049",
"Q#	c #0A0BA1",
"R#	c #0B0CA5",
"S#	c #000054",
"T#	c #0B07A6",
"U#	c #0D0B9C",
"V#	c #00002D",
"W#	c #000103",
"X#	c #41C943",
"Y#	c #003F00",
"Z#	c #54C051",
"`#	c #43CA40",
" $	c #00000B",
".$	c #000033",
"+$	c #0B0C98",
"@$	c #0B0AA3",
"#$	c #000052",
"$$	c #00003A",
"%$	c #030301",
"&$	c #030002",
"*$	c #001200",
"=$	c #40CC45",
"-$	c #29DC2B",
";$	c #004300",
">$	c #43CC40",
",$	c #56BD52",
"'$	c #000069",
")$	c #0F0D95",
"!$	c #12107D",
"~$	c #000042",
"{$	c #010004",
"]$	c #40CD43",
"^$	c #1FE321",
"/$	c #2FD92E",
"($	c #002100",
"_$	c #000400",
":$	c #000102",
"<$	c #00010D",
"[$	c #7A7F9F",
"}$	c #7978C8",
"|$	c #000060",
"1$	c #100D9A",
"2$	c #0D0C8C",
"3$	c #00001C",
"4$	c #000005",
"5$	c #001000",
"6$	c #2DD92F",
"7$	c #1BE61B",
"8$	c #30D530",
"9$	c #000203",
"0$	c #15164F",
"a$	c #151464",
"b$	c #7572E3",
"c$	c #000085",
"d$	c #0A0BA4",
"e$	c #080D85",
"f$	c #00004A",
"g$	c #000019",
"h$	c #010005",
"i$	c #000900",
"j$	c #51C153",
"k$	c #40CB3E",
"l$	c #003300",
"m$	c #808185",
"n$	c #817F8D",
"o$	c #7D78AE",
"p$	c #100C85",
"q$	c #0C09A0",
"r$	c #00007E",
"s$	c #000088",
"t$	c #060AC3",
"u$	c #0809A1",
"v$	c #000031",
"w$	c #030305",
"x$	c #79857B",
"y$	c #61B35F",
"z$	c #002000",
"A$	c #7F817E",
"B$	c #FAFAF8",
"C$	c #F9F4FF",
"D$	c #7771DB",
"E$	c #0F0E90",
"F$	c #0F1182",
"G$	c #0B0E8F",
"H$	c #080ABD",
"I$	c #000030",
"J$	c #020003",
"K$	c #010206",
"L$	c #7E7F81",
"M$	c #F2FEF4",
"N$	c #768976",
"O$	c #7E807F",
"P$	c #F6FAF9",
"Q$	c #F4F3FF",
"R$	c #F8F4FF",
"S$	c #F6F3FF",
"T$	c #7878BE",
"U$	c #111366",
"V$	c #0F0E74",
"W$	c #817F84",
"X$	c #F4F8F9",
"Y$	c #F7FBFA",
"Z$	c #F7F5F6",
"`$	c #7D7D7D",
" %	c #818181",
".%	c #F6FAFB",
"+%	c #F9FBFA",
"@%	c #F5F3FF",
"#%	c #F4F4FF",
"$%	c #7B7CAC",
"%%	c #807F7B",
"&%	c #F9F8F4",
"*%	c #F9F8FD",
"=%	c #F4F5F7",
"-%	c #F5F6F8",
";%	c #F7F7F5",
">%	c #F9F9FF",
",%	c #F5F7FF",
"'%	c #F5F6FF",
")%	c #F8F9FD",
"!%	c #F4F6F3",
"~%	c #FCFBF7",
"{%	c #F9FAFC",
"]%	c #F8F6FB",
"^%	c #F8F9FB",
"  . + @ + # $ % & $ * = - ; > , ' ; ) ! ~ { ] & ^ / % % ~ ~ ! . ",
"  . + + ( _ $ ! : < ) [ } | 1 2 3 4 5 6 7 8 9 { + ~ . % # ~ # . ",
"% % # # 0 0 $ a b c d e f g h i j k l m n o < p @ + q   % $ # # ",
". . # $ _ _ # r s t u v w x y z A B C D E F G H @ @ . q I & _ ( ",
"J ! _ _ # ~ . K L M N O P Q R S T U V W X Y Z ` + + ~ # 0 0 _ $ ",
"/ ! ( _ ~ ! .  ...+.@.#.N $.%.&.*.=.-.;.>.,.'.).+ ( ~ ( !._ _ $ ",
"$ $ ( ( # . . ~.{.].^./.(._.:.<.[./.}.>.|.1.2.3.# $ . . # # # # ",
"$ $ # # # . ~ ~.4.5.6.7.8.9.0.a.b.c.d.c.e.e.f.g.$ % % . ! ! ~ # ",
"( $ h.h.# ~ g.i.j.k.l.m.n.o.p.q.r.s.c.t.u.c.e.v.w.x.y.z.! A.B.C.",
"D.# . z.~ ~ ~ E.F.G.H.I.J.K.L.M.8.s.c.c.c.u.e.N.O.P.Q.R.g.S.T.S.",
"g.U.g.~ V.~ W.X.F.Y.Z.`. +.+++@+#+,.$+$+%+c.u.# &+D.( ( ( # % % ",
"V.g.3.*+R.=+-+;+>+,+'+)+!+'+~+{+8.]+e.^+e.c.,./+(+_+:+( { Q.$ <+",
"~ [+# <+I }+|+1+2+3+4+5+5+_.6+7+8.d.8+d.d.t.9+0+a+b+c+d+e+f+D.g+",
"# h+i+j+k+l+m+n+o+p+q+r+s+/.t+u+#+v+d.w+x+y+z+A+B+C+D+E+F+G+:+H+",
"Q.i+I+J+K+L+M+N+O+P+Q+R+r+/.S+T+#+u.c.U+V+W+X+Y+Z+`+ @.@F++@@@( ",
"#@$@%@&@*@=@-@;@>@,@'@&@)@!@~@{@]@^@/@(@_@:@<@[@}@|@1@2@3@4@5@6@",
"7@8@9@0@a@b@c@d@e@f@g@h@i@j@k@l@m@n@o@p@q@r@|@s@t@u@|@v@w@x@y@z@",
"A@B@C@D@E@F@G@H@I@F@J@K@L@R+M@s.N@O@P@Q@R@S@T@U@r@V@W@X@Y@Z@`@O@",
" #.#+#@###$#%#&#*#=#-#;#>#,#'#)#!#~#{#]#^#/#(#_#:#<#[#}#|#y+U+1#",
"2#3#4#5#6#7#8#9#0#a#,#b#d.^+c#d#e#f#g#h#i#j#k#l#m#n#o#p#N@'#c.q#",
"r#s#t#u#>#v#w#x#y#,#'#d.c.c.e.1#z#A#B#C#D#E#F#<#~#G#U+N@9+c.c.,.",
"@#H#I#J#K#L#M#N#;#,.,.]+u.c.e.)#O#P#Q#R#S#S#T#U#V#W#c.1.e.c.c.b#",
"r+K#X#Y#+#Z#`#J#>#d.W#,.e.f.e.s. $.$+$@$#$|#$$O@d#,.q#c.c.%$c.c.",
"&$*$=$-$;$>$,$a#,#8+d.9+c#e.c.s. $V#'$)$!$~$p# $s.d.d.c.c.e.e.^+",
"{$*$]$^$F@/$($r+_$t.c.,.c.d.:$<$[$z+}$|$1$2$~$3$)#c.d.d.2.2.%+e.",
"4$5$+#6$7$8$6#d.t.e.c#q#d.b#9$)#!#0$a$b$c$d$e$f$g$c#8+d.h${$e.e.",
"s.i$R+j$k$l$>#q#e.$+c#c.d.d.d.m$n$o$p$q$r$s$t$u$v$&$c.v+s.s.w$c.",
"+ x$5$6#y$z$,#c.e.e.u.d.v+A$B$d+*+C$D$E$F$G$H$R#I$J$u.d.s.K$L${ ",
"^ . M$N$M@i$s+d.q#c.d.O$P$<+S.V.D.Q$R$S$T$U$V$P#g$c.e.^+W$!.X$Y$",
"A.g.Z$# g.`$q#W#d. %d+Q..%I ~ V.$ +%V.@%#%F+$%!# $d.%%&%*+*%+%P.",
"d+[+# # $ +%Q.=%!.+ S.B$-%] [+# d+;%. g+>%,%'%,%)%!%~%&%[+d+d+h.",
"$ $ [+<+{ & <+{%]%3.B.* )%] p # . h.;%B$p ( ^%{ <+y.* q ;%Q.S.C."};
