/* XPM */ 
static char * earth_icon_xpm[] = {
"32 32 630 2",
"  	c None",
"! 	c black",
"# 	c #455361",
"$ 	c #485666",
"% 	c #455566",
"& 	c #3D4F65",
"' 	c #2B3B4D",
"( 	c #3D4B5C",
") 	c #4D5A68",
"* 	c #596473",
"+ 	c #606C7B",
", 	c #606D7F",
"- 	c #6A7686",
". 	c #5A6A7F",
"0 	c #374F71",
"1 	c #334A6B",
"2 	c #3B5169",
"3 	c #405667",
"4 	c #2B394A",
"5 	c #3B4854",
"6 	c #4D5A6B",
"7 	c #727E90",
"8 	c #ACB2BB",
"9 	c #CBCFD6",
": 	c #D8DCE3",
"; 	c #D4DAE3",
"< 	c #D7DCE6",
"= 	c #DEE2E8",
"> 	c #D1D6DC",
"? 	c #94A2B9",
"@ 	c #72839C",
"A 	c #5E6E84",
"B 	c #3E556B",
"C 	c #263548",
"D 	c #46525D",
"E 	c #737D84",
"F 	c #BCC1C3",
"G 	c #D4D9DC",
"H 	c #DCE0E4",
"I 	c #E1E5EA",
"J 	c #D7DDE5",
"K 	c #D6DCE5",
"L 	c #DBE0E9",
"M 	c #CFD8E7",
"N 	c #E2E7ED",
"O 	c #DBE1EA",
"P 	c #C7D0E0",
"Q 	c #B2BDCF",
"R 	c #4F6890",
"S 	c #2D4A6A",
"T 	c #364E50",
"U 	c #233145",
"V 	c #31425A",
"W 	c #778394",
"X 	c #CFD4D4",
"Y 	c #D1D8D6",
"Z 	c #D0D8DA",
"[ 	c #E3E7E8",
"] 	c #E4E9EB",
"^ 	c #DDE4ED",
"_ 	c #CBD6E8",
"` 	c #D8E0EB",
"a 	c #CDD9EB",
"b 	c #D6DFEE",
"c 	c #D9E2EE",
"d 	c #C4CFE4",
"e 	c #D4DBE8",
"f 	c #C2CBDD",
"g 	c #5D769D",
"h 	c #2F4D6A",
"i 	c #364F4D",
"j 	c #1A283E",
"k 	c #243653",
"l 	c #69768B",
"m 	c #C3CAD1",
"n 	c #C9D3CC",
"o 	c #D0DBD3",
"p 	c #DFE6E5",
"q 	c #E0E9EA",
"r 	c #C1D1DD",
"s 	c #9FB7E2",
"t 	c #A6BDE3",
"u 	c #D3E0DF",
"v 	c #C7D8E0",
"w 	c #D1DFF0",
"x 	c #D6E2F2",
"y 	c #C7D3E9",
"z 	c #C5D1E7",
"{ 	c #CED7E6",
"| 	c #B8C3D9",
"} 	c #566F9A",
"~ 	c #21406C",
" !	c #243F4F",
"!!	c #091932",
"#!	c #0B2042",
"$!	c #354768",
"%!	c #95A2B8",
"&!	c #B9C4C9",
"'!	c #D1DBD5",
"(!	c #E6ECEA",
")!	c #D6E4D8",
"*!	c #C6DDD7",
"+!	c #AED0BB",
",!	c #B6D4D4",
"-!	c #A4C4E7",
".!	c #B8D8D0",
"0!	c #CBE5DA",
"1!	c #C8E3D8",
"2!	c #CFE4E7",
"3!	c #A0B8E2",
"4!	c #93A8D0",
"5!	c #CED8EC",
"6!	c #B1BFDB",
"7!	c #94A6C7",
"8!	c #345286",
"9!	c #385057",
":!	c #384A56",
";!	c #091B39",
"<!	c #233759",
"=!	c #5D6D8A",
">!	c #97A5BF",
"?!	c #BCC7C1",
"@!	c #C9D6C3",
"A!	c #E5DEB7",
"B!	c #E9E8AC",
"C!	c #CFE4C9",
"D!	c #A7D4BF",
"E!	c #A5D5B8",
"F!	c #BEE2D9",
"G!	c #C2EAD7",
"H!	c #A8D9B9",
"I!	c #A3CCDC",
"J!	c #90B6DB",
"K!	c #8BB1D5",
"L!	c #87A6DC",
"M!	c #C6D5ED",
"N!	c #8298C4",
"O!	c #8EA3C9",
"P!	c #5772A4",
"Q!	c #304E7F",
"R!	c #415265",
"S!	c #07172F",
"T!	c #1A2C4A",
"U!	c #344668",
"V!	c #7987A0",
"W!	c #B4BFC9",
"X!	c #D3D7C2",
"Y!	c #CAD5AF",
"Z!	c #E3DFA6",
"[!	c #F2F2A5",
"]!	c #F2F9C1",
"^!	c #DEF3E3",
"_!	c #C4E0F6",
"`!	c #E8F8FA",
"a!	c #BFF0CE",
"b!	c #BCEFC1",
"c!	c #ACDDDB",
"d!	c #86B4EF",
"e!	c #6C94E4",
"f!	c #6E93DA",
"g!	c #B1C8ED",
"h!	c #6A84BA",
"i!	c #7994C6",
"j!	c #5876AF",
"k!	c #193C80",
"l!	c #26406B",
"m!	c #4C4F54",
"n!	c #0B1C36",
"o!	c #384760",
"p!	c #3D5074",
"q!	c #64779C",
"r!	c #93A493",
"s!	c #D3C394",
"t!	c #D2D29C",
"u!	c #EAE4A5",
"v!	c #F8F8A3",
"w!	c #FDFDB3",
"x!	c #F8FEC3",
"y!	c #E0F2ED",
"z!	c #D1E7EC",
"{!	c #DCF5EC",
"|!	c #A7E2D7",
"}!	c #5F9AFD",
"~!	c #6B98F4",
" #	c #79A2F1",
"!#	c #7298E5",
"##	c #9EBAE9",
"$#	c #5E7DBD",
"%#	c #6B8AC5",
"&#	c #4468AB",
"'#	c #052D7D",
"(#	c #082E71",
")#	c #575758",
"*#	c #06142A",
"+#	c #132541",
",#	c #384865",
"-#	c #45597D",
".#	c #3C568B",
"0#	c #A9B095",
"1#	c #D3BC8D",
"2#	c #DBD096",
"3#	c #DEEAA2",
"4#	c #FDFDA2",
"5#	c #FBFEAE",
"6#	c #F8FEC5",
"7#	c #FCFFE9",
"8#	c #FEFFFD",
"9#	c #FEFFFE",
":#	c #DFF1FD",
";#	c #9DC9FF",
"<#	c #88B6FE",
"=#	c #8AB1F8",
">#	c #AACAFA",
"?#	c #5D82D2",
"@#	c #567AC6",
"A#	c #5F82C7",
"B#	c #224A98",
"C#	c #063082",
"D#	c #0A3078",
"E#	c #535B64",
"F#	c #04122A",
"G#	c #1F2F4B",
"H#	c #2F4266",
"I#	c #3D537E",
"J#	c #435F94",
"K#	c #AAB5B5",
"L#	c #DBCDA1",
"M#	c #E2D6A1",
"N#	c #F1ED98",
"O#	c #FDFEA2",
"P#	c #E7FDC5",
"Q#	c #F0FEEC",
"R#	c #F9FFFC",
"S#	c #FAFFFE",
"T#	c #F1FBFF",
"U#	c #E7F9FF",
"V#	c #ADDBFF",
"W#	c #CEEAFF",
"X#	c #B5D8FE",
"Y#	c #6896F0",
"Z#	c #4370CF",
"[#	c #4A73CA",
"]#	c #416CC0",
"^#	c #04328D",
"_#	c #052F83",
"`#	c #103782",
"a#	c #40526B",
"b#	c #424A4B",
"c#	c #04122B",
"d#	c #0E2246",
"e#	c #475672",
"f#	c #4F6388",
"g#	c #536C9D",
"h#	c #7791BF",
"i#	c #D2DAD5",
"j#	c #EBDCA6",
"k#	c #FAEA9A",
"l#	c #FDFEAF",
"m#	c #CBFBC2",
"n#	c #E9FEEE",
"o#	c #E0FFE8",
"p#	c #BFF3DD",
"q#	c #89D7FD",
"r#	c #BDEEFF",
"s#	c #99D9FF",
"t#	c #7FBFFF",
"u#	c #397FFE",
"v#	c #316CF0",
"w#	c #3164D2",
"x#	c #3D6DD4",
"y#	c #194CB5",
"z#	c #022F88",
"{#	c #254C9A",
"|#	c #153C87",
"}#	c #1E3C6D",
"~#	c #3E4A47",
" $	c #04122C",
"!$	c #061C43",
"#$	c #445472",
"$$	c #2F497B",
"%$	c #536D9E",
"&$	c #3C5D9F",
"'$	c #748A93",
"($	c #CBD578",
")$	c #F8F097",
"*$	c #E2EFA4",
"+$	c #6BA6F5",
",$	c #53A0F6",
"-$	c #409BF8",
".$	c #93D9E0",
"0$	c #44B6FF",
"1$	c #56B6FF",
"2$	c #48A6FF",
"3$	c #2D88FF",
"4$	c #216FFF",
"5$	c #2061F3",
"6$	c #2059D7",
"7$	c #1D55CA",
"8$	c #1D53BF",
"9$	c #03308B",
":$	c #3156A0",
";$	c #1D438B",
"<$	c #0F3472",
"=$	c #33494E",
">$	c #08162E",
"?$	c #061B41",
"@$	c #162E5C",
"A$	c #062561",
"B$	c #284887",
"C$	c #2D529C",
"D$	c #224889",
"E$	c #87AD7C",
"F$	c #F9F1A1",
"G$	c #96BDC0",
"H$	c #145AF0",
"I$	c #1361FD",
"J$	c #106AFF",
"K$	c #4AAAF6",
"L$	c #41B2FE",
"M$	c #2F99FF",
"N$	c #2C8DFF",
"O$	c #237DFF",
"P$	c #1464FF",
"Q$	c #0D52F0",
"R$	c #0345D5",
"S$	c #1351D2",
"T$	c #2158C6",
"U$	c #043391",
"V$	c #244DA0",
"W$	c #153B86",
"X$	c #0E3272",
"Y$	c #1E375B",
"Z$	c #111D31",
"[$	c #03193F",
"]$	c #021B4B",
"^$	c #02205A",
"_$	c #072A71",
"`$	c #093084",
"a$	c #012F8D",
"b$	c #417484",
"c$	c #E5F582",
"d$	c #79AEBC",
"e$	c #185CEE",
"f$	c #2C84ED",
"g$	c #1A76F9",
"h$	c #3992EF",
"i$	c #60B6EF",
"j$	c #4BAEF0",
"k$	c #3B99FC",
"l$	c #1972FF",
"m$	c #337CFE",
"n$	c #4B86F9",
"o$	c #084BDA",
"p$	c #1752CE",
"q$	c #0941B1",
"r$	c #093793",
"s$	c #1C4598",
"t$	c #113782",
"u$	c #0E3170",
"v$	c #0B254F",
"w$	c #09152B",
"x$	c #091D3E",
"y$	c #132954",
"z$	c #183266",
"{$	c #102F6D",
"|$	c #092F7E",
"}$	c #194299",
"~$	c #063794",
" %	c #5C9482",
"!%	c #BFEA94",
"#%	c #82B4E8",
"$%	c #B4E6E1",
"%%	c #9CCCFE",
"&%	c #237AFF",
"'%	c #1272FB",
"(%	c #2886FC",
")%	c #5297E9",
"*%	c #3883FC",
"+%	c #9CD1FE",
",%	c #A5D1FD",
"-%	c #5E92EE",
".%	c #235ACB",
"0%	c #0F45B3",
"1%	c #17449E",
"2%	c #5976AE",
"3%	c #61779F",
"4%	c #1A3A71",
"5%	c #061E46",
"6%	c #051026",
"7%	c #041738",
"8%	c #162B53",
"9%	c #122C5F",
":%	c #1B3872",
";%	c #12357F",
"<%	c #022A80",
"=%	c #1342A1",
">%	c #00339C",
"?%	c #3A72CA",
"@%	c #4382C6",
"A%	c #C9EAD5",
"B%	c #CAEFEB",
"C%	c #8EC6FD",
"D%	c #1068FE",
"E%	c #1566FD",
"F%	c #1668FE",
"G%	c #1863F6",
"H%	c #5D9BFA",
"I%	c #97C3F7",
"J%	c #265FD1",
"K%	c #164AB5",
"L%	c #053496",
"M%	c #214796",
"N%	c #667EAB",
"O%	c #244581",
"P%	c #072964",
"Q%	c #06193B",
"R%	c #050E25",
"S%	c #041531",
"T%	c #0D2249",
"U%	c #263C66",
"V%	c #233C6F",
"W%	c #1E3E7F",
"X%	c #0B3081",
"Y%	c #0F3B94",
"Z%	c #083BA4",
"[%	c #0236A6",
"]%	c #0A40B7",
"^%	c #0F4ACA",
"_%	c #6A9FD3",
"`%	c #74AFF5",
"a%	c #377AF7",
"b%	c #4D8CF2",
"c%	c #A4CEE3",
"d%	c #CAE4DF",
"e%	c #C1E0CB",
"f%	c #73BDAA",
"g%	c #3273BF",
"h%	c #306CB5",
"i%	c #043694",
"j%	c #123782",
"k%	c #012976",
"l%	c #03286A",
"m%	c #09295D",
"n%	c #021028",
"o%	c #081C3F",
"p%	c #092150",
"q%	c #173161",
"r%	c #193773",
"s%	c #193C84",
"t%	c #244A99",
"u%	c #6388CC",
"v%	c #2554B4",
"w%	c #0E40A9",
"x%	c #2458C4",
"y%	c #144EC6",
"z%	c #5F95E4",
"{%	c #629FDC",
"|%	c #BAEDC7",
"}%	c #DFFBD1",
"~%	c #F0FBD3",
" &	c #AFEBBD",
"!&	c #9AD88B",
"#&	c #82C78C",
"$&	c #65AD6F",
"%&	c #32638F",
"&&	c #143F78",
"'&	c #26476B",
"(&	c #16356C",
")&	c #10284F",
"*&	c #040E25",
"+&	c #041534",
",&	c #0B2148",
"-&	c #0B2454",
".&	c #203B71",
"0&	c #1C3C7B",
"1&	c #27498E",
"2&	c #3D62AA",
"3&	c #3B65B8",
"4&	c #5580D1",
"5&	c #5685DC",
"6&	c #5C8DE6",
"7&	c #5083E6",
"8&	c #6095F0",
"9&	c #BBEBC3",
":&	c #D1F3C6",
";&	c #CDF3E2",
"<&	c #ABE0C0",
"=&	c #A0D5AE",
">&	c #6DB07B",
"?&	c #56995C",
"@&	c #558B4F",
"A&	c #738F51",
"B&	c #6E7B54",
"C&	c #143261",
"D&	c #0B1A36",
"E&	c #031129",
"F&	c #03173A",
"G&	c #051D4A",
"H&	c #0D285D",
"I&	c #183772",
"J&	c #173879",
"K&	c #345699",
"L&	c #3A5FA5",
"M&	c #2F58A8",
"N&	c #406CB9",
"O&	c #3766C0",
"P&	c #3C6DCC",
"Q&	c #92BACA",
"R&	c #C4ECD7",
"S&	c #C5ECDE",
"T&	c #CCEDE3",
"U&	c #C8E5DD",
"V&	c #B4D4C7",
"W&	c #579965",
"X&	c #3F8643",
"Y&	c #7F9B4F",
"Z&	c #657D4C",
"[&	c #2E475C",
"]&	c #10274C",
"^&	c #050F26",
"_&	c #04142F",
"`&	c #0B2045",
"a&	c #072358",
"b&	c #0C2C68",
"c&	c #123372",
"d&	c #39558C",
"e&	c #325393",
"f&	c #30549C",
"g&	c #6986BE",
"h&	c #809CCE",
"i&	c #7F9CD2",
"j&	c #BCD2D3",
"k&	c #8EC29C",
"l&	c #75B282",
"m&	c #72AE80",
"n&	c #71A87F",
"o&	c #3B8543",
"p&	c #41843F",
"q&	c #538A48",
"r&	c #7D9351",
"s&	c #5B6E58",
"t&	c #193259",
"u&	c #06122D",
"v&	c #071128",
"w&	c #091A35",
"x&	c #0F2750",
"y&	c #213E73",
"z&	c #28457D",
"{&	c #48608D",
"|&	c #3D588B",
"}&	c #496497",
"~&	c #4C689E",
" '	c #7D92B8",
"!'	c #8297BE",
"#'	c #5B78AA",
"$'	c #98AE9C",
"%'	c #4A8D53",
"&'	c #367F38",
"''	c #4E8841",
"('	c #588C44",
")'	c #799D50",
"*'	c #879E57",
"+'	c #697A50",
",'	c #485868",
"-'	c #152138",
".'	c #0B142A",
"0'	c #071934",
"1'	c #1D345A",
"2'	c #344F80",
"3'	c #4E6694",
"4'	c #435E90",
"5'	c #3E598F",
"6'	c #405B90",
"7'	c #7587A8",
"8'	c #7789AB",
"9'	c #8292B1",
":'	c #7E8CA3",
";'	c #838F8D",
"<'	c #829789",
"='	c #719762",
">'	c #679456",
"?'	c #819C5B",
"@'	c #5A6F50",
"A'	c #122D4C",
"B'	c #111E37",
"C'	c #051027",
"D'	c #061630",
"E'	c #10264A",
"F'	c #15356C",
"G'	c #204283",
"H'	c #21458A",
"I'	c #25498E",
"J'	c #3F5F9B",
"K'	c #6A82AF",
"L'	c #6B84B2",
"M'	c #758DB9",
"N'	c #6E88BA",
"O'	c #8F8A95",
"P'	c #97AAA0",
"Q'	c #829881",
"R'	c #445B4C",
"S'	c #122A45",
"T'	c #05122D",
"U'	c #050E27",
"V'	c #0A152C",
"W'	c #14243B",
"X'	c #13294D",
"Y'	c #193668",
"Z'	c #304F84",
"['	c #5C77A5",
"]'	c #718BB6",
"^'	c #718BB8",
"_'	c #4667A2",
"`'	c #556B92",
"a'	c #686B67",
"b'	c #576348",
"c'	c #283A3B",
"d'	c #0C1C35",
"e'	c #060F28",
"f'	c #0E1C34",
"g'	c #0F213B",
"h'	c #102441",
"i'	c #1C2E4A",
"j'	c #273850",
"k'	c #1E314C",
"l'	c #233138",
"m'	c #1F2930",
"n'	c #09162E",
"o'	c #061028",
"p'	c #061029",
"                                                                ",
"                            # $ % &                             ",
"                    ' ( ) * + , - . 0 1 2 3                     ",
"                4 5 6 7 8 9 : ; < = > ? @ A B                   ",
"              C D E F G H I J K L M N O P Q R S T               ",
"            U V W X Y Z [ ] ^ _ ` a b c d e f g h i             ",
"          j k l m n o p q r s t u v w x y z { | } ~  !          ",
"        !!#!$!%!&!'!(!)!*!+!,!-!.!0!1!2!3!4!5!6!7!8!9!:!        ",
"        ;!<!=!>!?!@!A!B!C!D!E!F!G!H!I!J!K!L!M!N!O!P!Q!R!        ",
"      S!T!U!V!W!X!Y!Z![!]!^!_!`!a!b!c!d!e!f!g!h!i!j!k!l!m!      ",
"      n!o!p!q!r!s!t!u!v!w!x!y!z!{!|!}!~! #!###$#%#&#'#(#)#      ",
"    *#+#,#-#.#0#1#2#3#4#5#6#7#8#9#:#;#<#=#>#?#@#A#B#C#D#E#      ",
"    F#G#H#I#J#K#L#M#N#O#P#Q#R#S#T#U#V#W#X#Y#Z#[#]#^#_#`#a#b#    ",
"    c#d#e#f#g#h#i#j#k#l#m#n#o#p#q#r#s#t#u#v#w#x#y#z#{#|#}#~#    ",
"     $!$#$$$%$&$'$($)$*$+$,$-$.$0$1$2$3$4$5$6$7$8$9$:$;$<$=$    ",
"    >$?$@$A$B$C$D$E$F$G$H$I$J$K$L$M$N$O$P$Q$R$S$T$U$V$W$X$Y$    ",
"    Z$[$]$^$_$`$a$b$c$d$e$f$g$h$i$j$k$l$m$n$o$p$q$r$s$t$u$v$    ",
"    w$x$y$z${$|$}$~$ %!%#%$%%%&%'%(%)%*%+%,%-%.%0%1%2%3%4%5%    ",
"    6%7%8%9%:%;%<%=%>%?%@%A%B%C%D%E%F%G%H%I%J%K%L%M%N%O%P%Q%    ",
"    R%S%T%U%V%W%X%Y%Z%[%]%^%_%`%a%b%c%d%e%f%g%h%i%j%k%l%m%      ",
"      n%o%p%q%r%s%t%u%v%w%x%y%z%{%|%}%~% &!&#&$&%&&&'&(&)&      ",
"      *&+&,&-&.&0&1&2&3&4&5&6&7&8&9&:&;&<&=&>&?&@&A&B&C&D&      ",
"        E&F&G&H&I&J&K&L&M&N&O&P&Q&R&S&T&U&V&W&X&Y&Z&[&]&        ",
"        ^&_&`&a&b&c&d&e&f&g&h&i&j&k&l&m&n&o&p&q&r&s&t&u&        ",
"          v&w&x&y&z&{&|&}&~& '!'#'$'%'&'''(')'*'+','-'          ",
"            .'0'1'2'3'4'5'6'7'8'9':';'<'='>'?'@'A'B'            ",
"              C'D'E'F'G'H'I'J'K'L'M'N'O'P'Q'R'S'T'              ",
"                U'V'W'X'Y'Z'[']'^'_'`'a'b'c'd'e'                ",
"                    e'V'f'g'h'i'j'k'l'm'n'e'                    ",
"                          U'e'o'p'e'U'                          ",
"                                                                ",
"                                                                "};