/* XPM */
static char * fem16_xpm[] = {
"16 16 241 2",
"  	c #FEFEFE",
". 	c #FEFDFD",
"+ 	c #FDFBFD",
"@ 	c #FDFBFA",
"# 	c #FDFBF9",
"$ 	c #FDF9FA",
"% 	c #DECAC9",
"& 	c #AC5743",
"* 	c #B6381F",
"= 	c #B22D0B",
"- 	c #C0360B",
"; 	c #C3390E",
"> 	c #CC290C",
", 	c #B83D22",
"' 	c #DBA791",
") 	c #EFFBFA",
"! 	c #FDFDF8",
"~ 	c #F8FAFA",
"{ 	c #F2EDED",
"] 	c #BF7E69",
"^ 	c #BB3A1C",
"/ 	c #B33608",
"( 	c #B23A06",
"_ 	c #B14104",
": 	c #B74F08",
"< 	c #BB5A0E",
"[ 	c #BD5A0D",
"} 	c #B7490B",
"| 	c #C3410C",
"1 	c #B3360C",
"2 	c #DEBFB3",
"3 	c #FEF8FD",
"4 	c #F7FAF1",
"5 	c #CB8272",
"6 	c #BC3C16",
"7 	c #BC3D0B",
"8 	c #B64C06",
"9 	c #AE5E0B",
"0 	c #AC5A05",
"a 	c #AD6F10",
"b 	c #B5730C",
"c 	c #A9680A",
"d 	c #BA730F",
"e 	c #BB6B0B",
"f 	c #C05F09",
"g 	c #BB4409",
"h 	c #BE6E61",
"i 	c #DBC8B6",
"j 	c #BD4C2E",
"k 	c #BD4208",
"l 	c #B65406",
"m 	c #B96509",
"n 	c #AC7007",
"o 	c #A37410",
"p 	c #A17D0D",
"q 	c #AA880A",
"r 	c #A48707",
"s 	c #AD8E0B",
"t 	c #B08E10",
"u 	c #BE890C",
"v 	c #BC7108",
"w 	c #A64409",
"x 	c #AB6654",
"y 	c #BC4712",
"z 	c #C14A05",
"A 	c #AF5F06",
"B 	c #B7710C",
"C 	c #AD7E0B",
"D 	c #A9430A",
"E 	c #600807",
"F 	c #36150A",
"G 	c #6C3510",
"H 	c #5F520A",
"I 	c #877C0E",
"J 	c #A7980A",
"K 	c #B69F0B",
"L 	c #A27009",
"M 	c #803008",
"N 	c #A3604C",
"O 	c #CB9B07",
"P 	c #B97A0D",
"Q 	c #B48C09",
"R 	c #9F8907",
"S 	c #AE6004",
"T 	c #C71106",
"U 	c #C10B08",
"V 	c #9B2210",
"W 	c #A30B05",
"X 	c #80350D",
"Y 	c #765205",
"Z 	c #96860F",
"` 	c #948608",
" .	c #724209",
"..	c #A01C09",
"+.	c #9E774E",
"@.	c #C19B17",
"#.	c #B9BF24",
"$.	c #848B10",
"%.	c #8F8516",
"&.	c #C16705",
"*.	c #AE4A08",
"=.	c #AA310C",
"-.	c #D14710",
";.	c #AA3006",
">.	c #AC5407",
",.	c #99710A",
"'.	c #867A07",
").	c #705813",
"!.	c #961B0A",
"~.	c #CB4E02",
"{.	c #9A9555",
"].	c #62BA5F",
"^.	c #B7D038",
"/.	c #8ABD46",
"(.	c #B7C825",
"_.	c #AC9517",
":.	c #C8B50F",
"<.	c #B19718",
"[.	c #B15D09",
"}.	c #B2810B",
"|.	c #B57B0A",
"1.	c #A58B0D",
"2.	c #746609",
"3.	c #AE3208",
"4.	c #D24C0B",
"5.	c #BE8C07",
"6.	c #849D67",
"7.	c #50C684",
"8.	c #4FB97B",
"9.	c #88BE3F",
"0.	c #8EBD40",
"a.	c #82C14A",
"b.	c #AAB319",
"c.	c #B4A513",
"d.	c #9FB124",
"e.	c #BBA214",
"f.	c #A49D12",
"g.	c #686306",
"h.	c #9F8E16",
"i.	c #E2780E",
"j.	c #CA9409",
"k.	c #AFBC1F",
"l.	c #61B18E",
"m.	c #1B8B9A",
"n.	c #17CECA",
"o.	c #1A9E9C",
"p.	c #27C5B5",
"q.	c #4ABA73",
"r.	c #37C593",
"s.	c #46C288",
"t.	c #96AF35",
"u.	c #6EA633",
"v.	c #98C73D",
"w.	c #93BD33",
"x.	c #CDB518",
"y.	c #C19B09",
"z.	c #BECA19",
"A.	c #78CB54",
"B.	c #50A2A2",
"C.	c #0E6BD2",
"D.	c #1079BA",
"E.	c #0F9DBD",
"F.	c #1AAAB9",
"G.	c #0B98BA",
"H.	c #2DC0A7",
"I.	c #40BD96",
"J.	c #1DAE99",
"K.	c #34B889",
"L.	c #68BA5D",
"M.	c #7CBC3B",
"N.	c #66C371",
"O.	c #92C740",
"P.	c #6FD266",
"Q.	c #2EBEA1",
"R.	c #ACD4E1",
"S.	c #6D9AC4",
"T.	c #0520C2",
"U.	c #0528A4",
"V.	c #0834C1",
"W.	c #0B6FA9",
"X.	c #072237",
"Y.	c #45596E",
"Z.	c #0DAEBA",
"`.	c #1990A5",
" +	c #0AADC1",
".+	c #0EA7B2",
"++	c #43D0A0",
"@+	c #59C571",
"#+	c #32C9B0",
"$+	c #2BB5C9",
"%+	c #F6F7F5",
"&+	c #FCF7F7",
"*+	c #3849C8",
"=+	c #0504AE",
"-+	c #0A29C2",
";+	c #5D7193",
">+	c #D9D6D9",
",+	c #F7FBF7",
"'+	c #8CBECF",
")+	c #094EB0",
"!+	c #069AC8",
"~+	c #0AAAC1",
"{+	c #1A94B4",
"]+	c #17ADC1",
"^+	c #22B7CC",
"/+	c #D9F0F5",
"(+	c #FAFAFC",
"_+	c #F5F5F6",
":+	c #585FBA",
"<+	c #AFB5E4",
"[+	c #FBFAF8",
"}+	c #F9FDFB",
"|+	c #FDF9FC",
"1+	c #F6F7EF",
"2+	c #2353C5",
"3+	c #0315B7",
"4+	c #0123B4",
"5+	c #0953CE",
"6+	c #20A3C2",
"7+	c #CDE6ED",
"8+	c #F7FAF7",
"9+	c #F6FBFE",
"0+	c #FDFDFD",
"a+	c #FDFCFB",
"b+	c #C9D7DD",
"c+	c #0608C3",
"d+	c #0109BA",
"e+	c #2A5AC0",
"f+	c #D8E6EA",
"g+	c #FAFBF9",
"h+	c #FBFDF9",
"i+	c #FFFFFF",
"j+	c #FEFFFE",
"k+	c #FDFEF9",
"l+	c #FDFBFC",
"m+	c #B2B5D6",
"n+	c #8087C8",
"o+	c #F4F7F8",
"p+	c #F9FEFC",
"q+	c #F9FDFE",
"r+	c #FDFDFF",
"  . + @ # $ % & * = - ; > , ' ) ",
"  ! ~ { ] ^ / ( _ : < [ } | 1 2 ",
"3 4 5 6 7 8 9 0 a b c d e f g h ",
"i j k l m n o p q r s t u v w x ",
"y z A B C D E F G H I J K L M N ",
"O P Q R S T U V W X Y Z `  ...+.",
"@.#.$.%.&.*.=.-.;.>.,.'.).!.~.{.",
"].^./.(._.:.<.[.}.|.1.2.3.4.5.6.",
"7.8.9.0.a.b.c.d.e.f.g.h.i.j.k.l.",
"m.n.o.p.q.r.s.t.u.v.w.x.y.z.A.B.",
"C.D.E.F.G.H.I.J.K.L.M.N.O.P.Q.R.",
"S.T.U.V.W.X.Y.Z.`. +.+++@+#+$+%+",
"&+*+=+-+;+>+,+'+)+!+~+{+]+^+/+~ ",
"(+_+:+<+[+}+|+1+2+3+4+5+6+7+8+9+",
"            0+a+b+c+d+e+f+g+h+  ",
"i+i+i+i+i+i+j+k+l+m+n+o+p+q+r+i+"};
