/* XPM */
static char * fem32_xpm[] = {
"32 32 941 2",
"  	c #FFFFFF",
". 	c #FEFEFE",
"+ 	c #FEFDFD",
"@ 	c #FDFCFC",
"# 	c #FBFCFD",
"$ 	c #F9FCFD",
"% 	c #F6FCFD",
"& 	c #F5FCFB",
"* 	c #F9FCFB",
"= 	c #FCFAFB",
"- 	c #FCF9FB",
"; 	c #F9FAFA",
"> 	c #F4FCF6",
", 	c #EEFAF6",
"' 	c #F8FAF5",
") 	c #FAEDE9",
"! 	c #EFCCC3",
"~ 	c #D5A899",
"{ 	c #C88775",
"] 	c #BC6A57",
"^ 	c #BC5C47",
"/ 	c #B95541",
"( 	c #B55242",
"_ 	c #B75D4A",
": 	c #BF715A",
"< 	c #CC8F7B",
"[ 	c #E7C2B5",
"} 	c #F9F4EE",
"| 	c #EFFAF5",
"1 	c #F0F9FA",
"2 	c #FAF2FB",
"3 	c #FDFBFD",
"4 	c #FDFBFC",
"5 	c #FDFBFA",
"6 	c #FDFBF9",
"7 	c #FCFAF9",
"8 	c #FDF9FA",
"9 	c #F5EFF0",
"0 	c #DECAC9",
"a 	c #D5907B",
"b 	c #AC5743",
"c 	c #B0422A",
"d 	c #B6381F",
"e 	c #B82B14",
"f 	c #B22D0B",
"g 	c #BC3609",
"h 	c #C0360B",
"i 	c #C6390D",
"j 	c #C3390E",
"k 	c #C5310E",
"l 	c #CC290C",
"m 	c #BF2911",
"n 	c #B83D22",
"o 	c #B25F44",
"p 	c #DBA791",
"q 	c #F5F7EB",
"r 	c #EFFBFA",
"s 	c #FDFDFB",
"t 	c #FDFCFB",
"u 	c #FAFCFD",
"v 	c #FBFBFD",
"w 	c #FBF9FB",
"x 	c #F8EDF2",
"y 	c #EACFC9",
"z 	c #CC9682",
"A 	c #B85F46",
"B 	c #B93B20",
"C 	c #BC3A14",
"D 	c #B5310F",
"E 	c #B93B08",
"F 	c #B13403",
"G 	c #BD4407",
"H 	c #B33906",
"I 	c #B93E0A",
"J 	c #B33907",
"K 	c #B13A07",
"L 	c #B53F09",
"M 	c #B24107",
"N 	c #B44507",
"O 	c #BB440A",
"P 	c #B83407",
"Q 	c #C1300C",
"R 	c #CE4024",
"S 	c #CD8070",
"T 	c #F1F6EC",
"U 	c #FDFDF8",
"V 	c #FBFDF8",
"W 	c #F8FAFA",
"X 	c #F9F8FA",
"Y 	c #F2EDED",
"Z 	c #DABEB5",
"` 	c #BF7E69",
" .	c #B54F36",
"..	c #BB3A1C",
"+.	c #C13C14",
"@.	c #B33608",
"#.	c #B93E08",
"$.	c #B23A06",
"%.	c #C04F0D",
"&.	c #B14104",
"*.	c #C15009",
"=.	c #B74F08",
"-.	c #BA560E",
";.	c #BB5A0E",
">.	c #BA580D",
",.	c #BD5A0D",
"'.	c #BB540E",
").	c #B7490B",
"!.	c #BD450A",
"~.	c #C3410C",
"{.	c #BF3F10",
"].	c #B3360C",
"^.	c #C23823",
"/.	c #DEBFB3",
"(.	c #FAFDFC",
"_.	c #FBFBFA",
":.	c #F5E8E5",
"<.	c #DFB4A9",
"[.	c #C97B65",
"}.	c #BA5032",
"|.	c #B43E16",
"1.	c #B43908",
"2.	c #B63C05",
"3.	c #BC490A",
"4.	c #B0470B",
"5.	c #BE570B",
"6.	c #AD4A03",
"7.	c #BD620C",
"8.	c #B05608",
"9.	c #B65808",
"0.	c #B86208",
"a.	c #B26106",
"b.	c #B6660A",
"c.	c #B66209",
"d.	c #B65D08",
"e.	c #C05F0C",
"f.	c #C45F0D",
"g.	c #BB5608",
"h.	c #BD5008",
"i.	c #C1450C",
"j.	c #C13A0A",
"k.	c #BE350E",
"l.	c #CB867D",
"m.	c #FFFBFC",
"n.	c #FEF8FD",
"o.	c #F8FCFD",
"p.	c #F7FAF1",
"q.	c #E4C4BF",
"r.	c #CB8272",
"s.	c #B95239",
"t.	c #BC3C16",
"u.	c #BE3508",
"v.	c #BC3D0B",
"w.	c #BB480A",
"x.	c #B64C06",
"y.	c #B7580B",
"z.	c #AE5E0B",
"A.	c #BE690A",
"B.	c #AC5A05",
"C.	c #B5700C",
"D.	c #AD6F10",
"E.	c #AE6B0F",
"F.	c #B5730C",
"G.	c #AB6B0A",
"H.	c #A9680A",
"I.	c #B16D0C",
"J.	c #BA730F",
"K.	c #BC700E",
"L.	c #BB6B0B",
"M.	c #BF6909",
"N.	c #C05F09",
"O.	c #C0510B",
"P.	c #BB4409",
"Q.	c #B3380C",
"R.	c #BE6E61",
"S.	c #FBFCFB",
"T.	c #FAF7F6",
"U.	c #F1DFDA",
"V.	c #D1A591",
"W.	c #BD654F",
"X.	c #B7411D",
"Y.	c #AF3609",
"Z.	c #B84007",
"`.	c #BE4808",
" +	c #B9530C",
".+	c #B65E0D",
"++	c #B45C06",
"@+	c #BD680C",
"#+	c #AF6D09",
"$+	c #B8790C",
"%+	c #AB6C08",
"&+	c #B17A08",
"*+	c #AF810C",
"=+	c #AD7D09",
"-+	c #AE7E0A",
";+	c #B1820C",
">+	c #AC7C0C",
",+	c #B17F10",
"'+	c #B6820F",
")+	c #B77E0C",
"!+	c #BC7C0C",
"~+	c #BF760B",
"{+	c #C0690A",
"]+	c #BC5A0A",
"^+	c #AF4409",
"/+	c #A7350D",
"(+	c #B26854",
"_+	c #FAFAF5",
":+	c #DBC8B6",
"<+	c #CA7D6B",
"[+	c #BD4C2E",
"}+	c #B8380E",
"|+	c #BD4208",
"1+	c #B84D05",
"2+	c #B65406",
"3+	c #B75A07",
"4+	c #B96509",
"5+	c #B76D0A",
"6+	c #AC7007",
"7+	c #B17D12",
"8+	c #A37410",
"9+	c #A07C0F",
"0+	c #A17D0D",
"a+	c #A7830E",
"b+	c #AA880A",
"c+	c #A68707",
"d+	c #A48707",
"e+	c #A98B09",
"f+	c #AD8E0B",
"g+	c #AD8C0E",
"h+	c #B08E10",
"i+	c #B98F0E",
"j+	c #BE890C",
"k+	c #BC7E0A",
"l+	c #BC7108",
"m+	c #B15906",
"n+	c #A64409",
"o+	c #9C340F",
"p+	c #AB6654",
"q+	c #DBC0B3",
"r+	c #C06E4E",
"s+	c #B93A13",
"t+	c #C13709",
"u+	c #C34605",
"v+	c #BA5107",
"w+	c #BB6006",
"x+	c #B86207",
"y+	c #B66807",
"z+	c #B87509",
"A+	c #B27509",
"B+	c #A46D0B",
"C+	c #8F5B14",
"D+	c #673F0C",
"E+	c #55400C",
"F+	c #5C4C0B",
"G+	c #6E5910",
"H+	c #8C7110",
"I+	c #91850E",
"J+	c #91850B",
"K+	c #92840B",
"L+	c #A2920C",
"M+	c #A7940D",
"N+	c #AB960E",
"O+	c #B79B0D",
"P+	c #BB960B",
"Q+	c #B7860A",
"R+	c #B37508",
"S+	c #A65909",
"T+	c #99410B",
"U+	c #8E260B",
"V+	c #A96555",
"W+	c #C18E69",
"X+	c #BC4712",
"Y+	c #C34405",
"Z+	c #C14A05",
"`+	c #BE5D08",
" @	c #AF5F06",
".@	c #B96E0A",
"+@	c #B7710C",
"@@	c #B37A0B",
"#@	c #AD7E0B",
"$@	c #A36408",
"%@	c #A9430A",
"&@	c #961D11",
"*@	c #600807",
"=@	c #390B0B",
"-@	c #36150A",
";@	c #4D1F0D",
">@	c #6C3510",
",@	c #684D0B",
"'@	c #5F520A",
")@	c #6C620E",
"!@	c #877C0E",
"~@	c #9C8F0D",
"{@	c #A7980A",
"]@	c #B2A009",
"^@	c #B69F0B",
"/@	c #AD8A0A",
"(@	c #A27009",
"_@	c #96530D",
":@	c #803008",
"<@	c #921A07",
"[@	c #A3604C",
"}@	c #C69D53",
"|@	c #BF710C",
"1@	c #BB5E08",
"2@	c #BE6208",
"3@	c #B66C0A",
"4@	c #B17608",
"5@	c #B57E0B",
"6@	c #AF840B",
"7@	c #A78809",
"8@	c #A67208",
"9@	c #AD4003",
"0@	c #BB1705",
"a@	c #BF0C10",
"b@	c #AB0D0D",
"c@	c #7F160C",
"d@	c #6F1A10",
"e@	c #781111",
"f@	c #7A0608",
"g@	c #5F0E03",
"h@	c #461E06",
"i@	c #563B0B",
"j@	c #6D5908",
"k@	c #8B7B09",
"l@	c #A2920D",
"m@	c #AA9A0C",
"n@	c #A79608",
"o@	c #9B830A",
"p@	c #8D5F0A",
"q@	c #723809",
"r@	c #7A1B03",
"s@	c #AC2008",
"t@	c #9D6347",
"u@	c #C39F41",
"v@	c #CB9B07",
"w@	c #B57C0A",
"x@	c #B97A0D",
"y@	c #B37D0A",
"z@	c #B48C09",
"A@	c #A98909",
"B@	c #9F8907",
"C@	c #9E8205",
"D@	c #AE6004",
"E@	c #C83303",
"F@	c #C71106",
"G@	c #C10D0D",
"H@	c #C10B08",
"I@	c #B31906",
"J@	c #9B2210",
"K@	c #9A0E0E",
"L@	c #A30B05",
"M@	c #931D05",
"N@	c #80350D",
"O@	c #7B440B",
"P@	c #765205",
"Q@	c #856F08",
"R@	c #96860F",
"S@	c #998A0C",
"T@	c #948608",
"U@	c #86720C",
"V@	c #724209",
"W@	c #631A05",
"X@	c #A01C09",
"Y@	c #BD3707",
"Z@	c #9E774E",
"`@	c #BF9849",
" #	c #D39B0A",
".#	c #B9A403",
"+#	c #AD9A0C",
"@#	c #A9910D",
"##	c #A18D0C",
"$#	c #92810C",
"%#	c #8D7D0A",
"&#	c #A7790A",
"*#	c #C05E08",
"=#	c #C23603",
"-#	c #C41C04",
";#	c #C81909",
">#	c #BE0F09",
",#	c #C21804",
"'#	c #BA3B12",
")#	c #9F1400",
"!#	c #AC1C03",
"~#	c #AA2F05",
"{#	c #A2480A",
"]#	c #98540C",
"^#	c #90650C",
"/#	c #8C750A",
"(#	c #92850D",
"_#	c #8C850E",
":#	c #7E760E",
"<#	c #70560C",
"[#	c #632508",
"}#	c #A11806",
"|#	c #C22D07",
"1#	c #C95F0B",
"2#	c #9D874F",
"3#	c #9E9965",
"4#	c #C19B17",
"5#	c #B8AF05",
"6#	c #B9BF24",
"7#	c #9FA615",
"8#	c #848B10",
"9#	c #6E6D0F",
"0#	c #8F8516",
"a#	c #BB9211",
"b#	c #C16705",
"c#	c #B44704",
"d#	c #AE4A08",
"e#	c #B65811",
"f#	c #AA310C",
"g#	c #BF2104",
"h#	c #D14710",
"i#	c #AB3B03",
"j#	c #AA3006",
"k#	c #B43F06",
"l#	c #AC5407",
"m#	c #A1600C",
"n#	c #99710A",
"o#	c #8F7B08",
"p#	c #867A07",
"q#	c #7F740F",
"r#	c #705813",
"s#	c #692E09",
"t#	c #961B0A",
"u#	c #CD280A",
"v#	c #CB4E02",
"w#	c #C57F09",
"x#	c #9A9555",
"y#	c #8EC693",
"z#	c #88A32C",
"A#	c #B2AE15",
"B#	c #C2D02E",
"C#	c #9FBC3B",
"D#	c #76972D",
"E#	c #7F9725",
"F#	c #B4BA25",
"G#	c #C7A714",
"H#	c #B37604",
"I#	c #B17D0D",
"J#	c #C5A718",
"K#	c #CCB11D",
"L#	c #AC801E",
"M#	c #AC4606",
"N#	c #D04909",
"O#	c #B26A14",
"P#	c #A75008",
"Q#	c #B25109",
"R#	c #B2670A",
"S#	c #AC7509",
"T#	c #A4820B",
"U#	c #96850B",
"V#	c #897D09",
"W#	c #7A620A",
"X#	c #81330C",
"Y#	c #B0180A",
"Z#	c #D3270A",
"`#	c #C65107",
" $	c #CF810B",
".$	c #BB9F09",
"+$	c #8A9956",
"@$	c #8ACB8F",
"#$	c #62BA5F",
"$$	c #91B027",
"%$	c #B7D038",
"&$	c #9ECC45",
"*$	c #8ABD46",
"=$	c #91B835",
"-$	c #B7C825",
";$	c #BDAB17",
">$	c #AC9517",
",$	c #B7B21C",
"'$	c #C8B50F",
")$	c #D6AF16",
"!$	c #B19718",
"~$	c #B79518",
"{$	c #B15D09",
"]$	c #B97314",
"^$	c #B2810B",
"/$	c #B36F08",
"($	c #B57B0A",
"_$	c #B4890B",
":$	c #A58B0D",
"<$	c #92840E",
"[$	c #746609",
"}$	c #714906",
"|$	c #AE3208",
"1$	c #E72807",
"2$	c #D24C0B",
"3$	c #CB8208",
"4$	c #BE8C07",
"5$	c #BDC013",
"6$	c #849D67",
"7$	c #96C48F",
"8$	c #52CB7C",
"9$	c #4CAF56",
"0$	c #98D03C",
"a$	c #9BCC41",
"b$	c #86BF48",
"c$	c #8EBD2A",
"d$	c #B4C925",
"e$	c #A0BA31",
"f$	c #89B22E",
"g$	c #ABC621",
"h$	c #BDBC0B",
"i$	c #D0B716",
"j$	c #CBA910",
"k$	c #B2B80D",
"l$	c #968F1A",
"m$	c #D38321",
"n$	c #B8A00B",
"o$	c #B8980F",
"p$	c #B68F0A",
"q$	c #B19407",
"r$	c #9D890B",
"s$	c #776908",
"t$	c #74630C",
"u$	c #A86513",
"v$	c #DA4D0B",
"w$	c #E04C04",
"x$	c #CF7F05",
"y$	c #C48F08",
"z$	c #D1BE1E",
"A$	c #9DBB20",
"B$	c #7AA981",
"C$	c #82C08D",
"D$	c #50C684",
"E$	c #2DB88C",
"F$	c #4FB97B",
"G$	c #84C452",
"H$	c #88BE3F",
"I$	c #90BB2E",
"J$	c #8EBD40",
"K$	c #76BB5B",
"L$	c #82C14A",
"M$	c #ABC423",
"N$	c #AAB319",
"O$	c #A6A726",
"P$	c #B4A513",
"Q$	c #B3B80D",
"R$	c #9FB124",
"S$	c #A99327",
"T$	c #BBA214",
"U$	c #B0B520",
"V$	c #A49D12",
"W$	c #968B0A",
"X$	c #686306",
"Y$	c #777311",
"Z$	c #9F8E16",
"`$	c #BD8214",
" %	c #E2780E",
".%	c #E88306",
"+%	c #CA9409",
"@%	c #D2BA0E",
"#%	c #AFBC1F",
"$%	c #89CD4D",
"%%	c #61B18E",
"&%	c #5B9DA6",
"*%	c #3EB892",
"=%	c #1FBE9D",
"-%	c #20CCBE",
";%	c #39AF92",
">%	c #4FA36D",
",%	c #48A167",
"'%	c #42BA86",
")%	c #4ECB87",
"!%	c #6CC458",
"~%	c #77BB48",
"{%	c #5BB464",
"]%	c #57C073",
"^%	c #6EB450",
"/%	c #97B81D",
"(%	c #A1AE30",
"_%	c #82BA38",
":%	c #A0A71A",
"<%	c #A7C228",
"[%	c #96BE30",
"}%	c #85AB33",
"|%	c #82A431",
"1%	c #A4B323",
"2%	c #C1AD15",
"3%	c #C0900B",
"4%	c #CE8707",
"5%	c #E29E05",
"6%	c #CBC00E",
"7%	c #B4C327",
"8%	c #95CB37",
"9%	c #5BC86C",
"0%	c #4AA090",
"a%	c #52A1C3",
"b%	c #1B8B9A",
"c%	c #1AB7A7",
"d%	c #17CECA",
"e%	c #1BADBE",
"f%	c #1A9E9C",
"g%	c #14AAA5",
"h%	c #27C5B5",
"i%	c #46CE93",
"j%	c #4ABA73",
"k%	c #37B086",
"l%	c #37C593",
"m%	c #3DCE88",
"n%	c #46C288",
"o%	c #5BAA4E",
"p%	c #96AF35",
"q%	c #82CF65",
"r%	c #6EA633",
"s%	c #A5C12B",
"t%	c #98C73D",
"u%	c #86C54E",
"v%	c #93BD33",
"w%	c #B3BF1C",
"x%	c #CDB518",
"y%	c #BE9610",
"z%	c #C19B09",
"A%	c #E7CA0D",
"B%	c #BECA19",
"C%	c #95C844",
"D%	c #78CB54",
"E%	c #3DC992",
"F%	c #50A2A2",
"G%	c #42A3C4",
"H%	c #0B70C1",
"I%	c #0D7EAD",
"J%	c #1BBCC4",
"K%	c #15AFCC",
"L%	c #0E9EB6",
"M%	c #0BABB8",
"N%	c #22C7C0",
"O%	c #32BDA8",
"P%	c #20A89C",
"Q%	c #13B7B1",
"R%	c #2BCCA2",
"S%	c #43CA91",
"T%	c #3DC893",
"U%	c #30B18D",
"V%	c #58A169",
"W%	c #7ED478",
"X%	c #44B46B",
"Y%	c #7EBB50",
"Z%	c #8FC642",
"`%	c #91C84C",
" &	c #93C132",
".&	c #A7BF22",
"+&	c #A5B934",
"@&	c #94AB37",
"#&	c #B0B622",
"$&	c #CFD623",
"%&	c #9AD140",
"&&	c #75C964",
"*&	c #4DC88A",
"=&	c #22BBAD",
"-&	c #72B0C0",
";&	c #45A2BF",
">&	c #0E6BD2",
",&	c #084EC1",
"'&	c #1079BA",
")&	c #139BCA",
"!&	c #0F9DBD",
"~&	c #0FA8B7",
"{&	c #1AAAB9",
"]&	c #1996B7",
"^&	c #0B98BA",
"/&	c #10B9BC",
"(&	c #2DC0A7",
"_&	c #3DAE88",
":&	c #40BD96",
"<&	c #27B4A1",
"[&	c #1DAE99",
"}&	c #5EB98E",
"|&	c #34B889",
"1&	c #3DBC8A",
"2&	c #68BA5D",
"3&	c #81C655",
"4&	c #7CBC3B",
"5&	c #70B64C",
"6&	c #66C371",
"7&	c #6AC162",
"8&	c #92C740",
"9&	c #AAE247",
"0&	c #6FD266",
"a&	c #4BC99A",
"b&	c #2EBEA1",
"c&	c #18B1BC",
"d&	c #ACD4E1",
"e&	c #94C9DB",
"f&	c #1F6FC0",
"g&	c #063FC9",
"h&	c #0539B9",
"i&	c #0C56C3",
"j&	c #0C70A9",
"k&	c #0B71AA",
"l&	c #0E66B7",
"m&	c #0C6DC1",
"n&	c #098EC2",
"o&	c #1097A3",
"p&	c #176C6E",
"q&	c #1A5054",
"r&	c #23706D",
"s&	c #26AB9F",
"t&	c #06B6B4",
"u&	c #309CA4",
"v&	c #2DB29A",
"w&	c #1CC2B2",
"x&	c #2CAB9A",
"y&	c #3BA884",
"z&	c #3BA977",
"A&	c #35B68D",
"B&	c #47CD98",
"C&	c #62C96F",
"D&	c #7CCC54",
"E&	c #80E570",
"F&	c #4BD18C",
"G&	c #30C0B9",
"H&	c #1DB2B6",
"I&	c #41BBCE",
"J&	c #DDF1F1",
"K&	c #E0F2F7",
"L&	c #6D9AC4",
"M&	c #1342BE",
"N&	c #0520C2",
"O&	c #071AC4",
"P&	c #0528A4",
"Q&	c #0328AE",
"R&	c #0834C1",
"S&	c #0C5BC5",
"T&	c #0B6FA9",
"U&	c #094E6A",
"V&	c #072237",
"W&	c #19233D",
"X&	c #45596E",
"Y&	c #52AFA9",
"Z&	c #0DAEBA",
"`&	c #1691B8",
" *	c #1990A5",
".*	c #17BEBF",
"+*	c #0AADC1",
"@*	c #09A0B4",
"#*	c #0EA7B2",
"$*	c #1ABDB4",
"%*	c #43D0A0",
"&*	c #5BC375",
"**	c #59C571",
"=*	c #57E39C",
"-*	c #32C9B0",
";*	c #1EB0CB",
">*	c #2BB5C9",
",*	c #A2DAE6",
"'*	c #F6F7F5",
")*	c #F9FCFA",
"!*	c #D0D8E4",
"~*	c #4968C2",
"{*	c #0E25C7",
"]*	c #060AC9",
"^*	c #0203AF",
"/*	c #010ABA",
"(*	c #052AC8",
"_*	c #0A4DB3",
":*	c #134980",
"<*	c #303E5C",
"[*	c #5E5E71",
"}*	c #868897",
"|*	c #B4B1BD",
"1*	c #ACD2CF",
"2*	c #37A7BE",
"3*	c #1390C5",
"4*	c #0A63AB",
"5*	c #14A6C0",
"6*	c #06AEC8",
"7*	c #03A9CC",
"8*	c #08ACC4",
"9*	c #16BFB9",
"0*	c #34BEA4",
"a*	c #38AA8F",
"b*	c #30BA9D",
"c*	c #39DBBD",
"d*	c #1CBAC4",
"e*	c #24ADD7",
"f*	c #7BD2DF",
"g*	c #EDF5F6",
"h*	c #FDF6F8",
"i*	c #FEFAF6",
"j*	c #FCF7F7",
"k*	c #A7B7E1",
"l*	c #3849C8",
"m*	c #0E11C8",
"n*	c #0504AE",
"o*	c #040BB9",
"p*	c #0A29C2",
"q*	c #2750A9",
"r*	c #5D7193",
"s*	c #9E9EA9",
"t*	c #D9D6D9",
"u*	c #F6F8F8",
"v*	c #F7FBF7",
"w*	c #EDF3F2",
"x*	c #8CBECF",
"y*	c #1889C2",
"z*	c #094EB0",
"A*	c #0B73BF",
"B*	c #069AC8",
"C*	c #06A6CE",
"D*	c #0AAAC1",
"E*	c #14AAB7",
"F*	c #1A94B4",
"G*	c #138AB5",
"H*	c #17ADC1",
"I*	c #25C8CF",
"J*	c #22B7CC",
"K*	c #74C6D8",
"L*	c #D9F0F5",
"M*	c #FAFDF8",
"N*	c #FEFCF9",
"O*	c #FCF7F8",
"P*	c #F1F5F8",
"Q*	c #989CD9",
"R*	c #3D3AC4",
"S*	c #100EA7",
"T*	c #1416B8",
"U*	c #3F4BC6",
"V*	c #8995CA",
"W*	c #D5D8E2",
"X*	c #FAFBF7",
"Y*	c #FAFCF8",
"Z*	c #FAFDFB",
"`*	c #F6FBF7",
" =	c #F9F6F6",
".=	c #DFE9E6",
"+=	c #4691C6",
"@=	c #0D4CB9",
"#=	c #0439BF",
"$=	c #0664C0",
"%=	c #0684C0",
"&=	c #0883B7",
"*=	c #0E6CB7",
"==	c #0C67C8",
"-=	c #087DC9",
";=	c #0CA1CA",
">=	c #25BEE0",
",=	c #6BCAD6",
"'=	c #DDE6E3",
")=	c #FAF9F8",
"!=	c #F8FBF9",
"~=	c #F2FBFC",
"{=	c #FCFEFC",
"]=	c #FAFAFC",
"^=	c #FCFBF6",
"/=	c #F5F5F6",
"(=	c #9EA0D5",
"_=	c #585FBA",
":=	c #6368CB",
"<=	c #AFB5E4",
"[=	c #ECEFF2",
"}=	c #FBFAF8",
"|=	c #FBFBF8",
"1=	c #F9FDFB",
"2=	c #FAFDFE",
"3=	c #FDF9FC",
"4=	c #FBF9F9",
"5=	c #F6F7EF",
"6=	c #ADCBE2",
"7=	c #2353C5",
"8=	c #0825C4",
"9=	c #0315B7",
"0=	c #0224BA",
"a=	c #0123B4",
"b=	c #032EBB",
"c=	c #0953CE",
"d=	c #107AC3",
"e=	c #20A3C2",
"f=	c #63CFE7",
"g=	c #CDE6ED",
"h=	c #F7F5F7",
"i=	c #F7FAF7",
"j=	c #FAFAFD",
"k=	c #F6FBFE",
"l=	c #FEFCFC",
"m=	c #FDFCF2",
"n=	c #F2F9F0",
"o=	c #697BC5",
"p=	c #142AC3",
"q=	c #0306C1",
"r=	c #0403C5",
"s=	c #0106C5",
"t=	c #0322CA",
"u=	c #0B53CE",
"v=	c #247FBC",
"w=	c #6BADBC",
"x=	c #CEE1E9",
"y=	c #FBFBF9",
"z=	c #F9FBFB",
"A=	c #FCF8FC",
"B=	c #FDFDFD",
"C=	c #FDFCFD",
"D=	c #F8FDF3",
"E=	c #C9D7DD",
"F=	c #3644C4",
"G=	c #0608C3",
"H=	c #0206BB",
"I=	c #0109BA",
"J=	c #0A22C2",
"K=	c #2A5AC0",
"L=	c #7DA8CA",
"M=	c #D8E6EA",
"N=	c #F8F6FA",
"O=	c #FAFBF9",
"P=	c #F6FEF8",
"Q=	c #FBFDF9",
"R=	c #FDFEFD",
"S=	c #FCFEFA",
"T=	c #FCFCFA",
"U=	c #FDFAFA",
"V=	c #F4F9E9",
"W=	c #9295CE",
"X=	c #2726D1",
"Y=	c #0A0BD3",
"Z=	c #0A13C3",
"`=	c #2C3BB5",
" -	c #93A5D1",
".-	c #EBF2F1",
"+-	c #FCF8F4",
"@-	c #FBF8FA",
"#-	c #F8FBFC",
"$-	c #F6FDFC",
"%-	c #FEFFFE",
"&-	c #FDFFF9",
"*-	c #FDFEF9",
"=-	c #F7F7F6",
"--	c #B2B5D6",
";-	c #787DC6",
">-	c #8087C8",
",-	c #C3CBE3",
"'-	c #F4F7F8",
")-	c #FBFCFC",
"!-	c #F9FEFC",
"~-	c #F9FEFE",
"{-	c #F9FDFE",
"]-	c #FCFDFF",
"^-	c #FDFDFF",
"  . . + @ # $ % & * = - ; > , ' ) ! ~ { ] ^ / ( _ : < [ } | 1 2 ",
"  . . + 3 3 4 5 6 6 7 8 9 0 a b c d e f g h i j k l m n o p q r ",
"  . . s t # u v w x y z A B C D E F G H I J K L M N O P Q R S T ",
"  . . U V W X Y Z `  ...+.@.#.$.%.&.*.=.-.;.>.,.'.).!.~.{.].^./.",
"  . . (._.:.<.[.}.|.1.2.3.4.5.6.7.8.9.0.a.b.c.d.e.f.g.h.i.j.k.l.",
"m.n.o.p.q.r.s.t.u.v.w.x.y.z.A.B.C.D.E.F.G.H.I.J.K.L.M.N.O.P.Q.R.",
"S.T.U.V.W.X.Y.Z.`. +.+++@+#+$+%+&+*+=+-+;+>+,+'+)+!+~+{+]+^+/+(+",
"_+:+<+[+}+|+1+2+3+4+5+6+7+8+9+0+a+b+c+d+e+f+g+h+i+j+k+l+m+n+o+p+",
"q+r+s+t+u+v+w+x+y+z+A+B+C+D+E+F+G+H+I+J+K+L+M+N+O+P+Q+R+S+T+U+V+",
"W+X+Y+Z+`+ @.@+@@@#@$@%@&@*@=@-@;@>@,@'@)@!@~@{@]@^@/@(@_@:@<@[@",
"}@|@1@2@3@4@5@6@7@8@9@0@a@b@c@d@e@f@g@h@i@j@k@l@m@n@o@p@q@r@s@t@",
"u@v@w@x@y@z@A@B@C@D@E@F@G@H@I@J@K@L@M@N@O@P@Q@R@S@T@U@V@W@X@Y@Z@",
"`@ #.#+#@###$#%#&#*#=#-#;#>#,#'#)#!#~#{#]#^#/#(#_#:#<#[#}#|#1#2#",
"3#4#5#6#7#8#9#0#a#b#c#d#e#f#g#h#i#j#k#l#m#n#o#p#q#r#s#t#u#v#w#x#",
"y#z#A#B#C#D#E#F#G#H#I#J#K#L#M#N#O#P#Q#R#S#T#U#V#W#X#Y#Z#`# $.$+$",
"@$#$$$%$&$*$=$-$;$>$,$'$)$!$~${$]$^$/$($_$:$<$[$}$|$1$2$3$4$5$6$",
"7$8$9$0$a$b$c$d$e$f$g$h$i$j$k$l$m$n$o$p$q$r$s$t$u$v$w$x$y$z$A$B$",
"C$D$E$F$G$H$I$J$K$L$M$N$O$P$Q$R$S$T$U$V$W$X$Y$Z$`$ %.%+%@%#%$%%%",
"&%*%=%-%;%>%,%'%)%!%~%{%]%^%/%(%_%:%<%[%}%|%1%2%3%4%5%6%7%8%9%0%",
"a%b%c%d%e%f%g%h%i%j%k%l%m%n%o%p%q%r%s%t%u%v%w%x%y%z%A%B%C%D%E%F%",
"G%H%I%J%K%L%M%N%O%P%Q%R%S%T%U%V%W%X%Y%Z%`% &.&+&@&#&$&%&&&*&=&-&",
";&>&,&'&)&!&~&{&]&^&/&(&_&:&<&[&}&|&1&2&3&4&5&6&7&8&9&0&a&b&c&d&",
"e&f&g&h&i&j&k&l&m&n&o&p&q&r&s&t&u&v&w&x&y&z&A&B&C&D&E&F&G&H&I&J&",
"K&L&M&N&O&P&Q&R&S&T&U&V&W&X&Y&Z&`& *.*+*@*#*$*%*&***=*-*;*>*,*'*",
")*!*~*{*]*^*/*(*_*:*<*[*}*|*1*2*3*4*5*6*7*8*9*0*a*b*c*d*e*f*g*h*",
"i*j*k*l*m*n*o*p*q*r*s*t*u*v*w*x*y*z*A*B*C*D*E*F*G*H*I*J*K*L*M*W ",
"N*O*P*Q*R*S*T*U*V*W*X*Y*Z*`* =.=+=@=#=$=%=&=*===-=;=>=,='=)=!=~=",
"{=]=^=/=(=_=:=<=[=}=|=1=2=3=4=5=6=7=8=9=0=a=b=c=d=e=f=g=h=i=j=k=",
"  . . . . . . . . . . . . + l=m=n=o=p=q=r=s=t=u=v=w=x=y=z=A=. . ",
"  . . . . . . . . . . . . B=C=t D=E=F=G=H=I=J=K=L=M=N=O=P=Q=. . ",
"  . . . . . . . . . . . . R=S=T=U=V=W=X=Y=Z=`= -.-+-@-#-$-T=. . ",
"                          %-&-*-3 4 =---;->-,-'-)-!-~-{-]-^-    "};
