/* XPM */
static char * povlogo_xpm[] = {
"32 32 474 2",
"  	c #FEFFFD",
". 	c #FEFFFF",
"+ 	c #FFFFFF",
"@ 	c #FEFFFE",
"# 	c #FDFFFD",
"$ 	c #FDFDFD",
"% 	c #FDFEFE",
"& 	c #FBFEFA",
"* 	c #F9FFFA",
"= 	c #FDFEFD",
"- 	c #FEFDF9",
"; 	c #FFFEFB",
"> 	c #FFFDFD",
", 	c #FDFCFA",
"' 	c #FEFBF6",
") 	c #FEF9F6",
"! 	c #FFF7F7",
"~ 	c #FEF3F4",
"{ 	c #FFF5F6",
"] 	c #FFF7F6",
"^ 	c #FCFBF6",
"/ 	c #FDFEF9",
"( 	c #FEFEFD",
"_ 	c #FEFEFE",
": 	c #FDFCFD",
"< 	c #FEFCFE",
"[ 	c #FDFDFF",
"} 	c #FAFFFC",
"| 	c #FBFFFD",
"1 	c #FEFDFD",
"2 	c #FCFEFE",
"3 	c #FEFEFC",
"4 	c #FEFBF8",
"5 	c #FFF5F3",
"6 	c #F9CBCB",
"7 	c #DF9493",
"8 	c #D57270",
"9 	c #CD5F5A",
"0 	c #C9524F",
"a 	c #CC5655",
"b 	c #D26A65",
"c 	c #DD8885",
"d 	c #F2BCB9",
"e 	c #FFECEA",
"f 	c #FFFBF9",
"g 	c #FAFCFB",
"h 	c #FCFDFD",
"i 	c #FAFEFD",
"j 	c #FFFEFD",
"k 	c #FDFDFE",
"l 	c #FFFFFE",
"m 	c #FDFEFC",
"n 	c #FEFDFC",
"o 	c #FEFBF5",
"p 	c #FCEFE7",
"q 	c #E9A29E",
"r 	c #C54D4C",
"s 	c #CB3633",
"t 	c #D8423E",
"u 	c #E85352",
"v 	c #F25E5F",
"w 	c #F66363",
"x 	c #F35E5B",
"y 	c #EB534D",
"z 	c #E0423F",
"A 	c #D33131",
"B 	c #C53D3C",
"C 	c #E5918C",
"D 	c #FCE8E1",
"E 	c #FDFBF4",
"F 	c #FDFDFA",
"G 	c #FCFEFC",
"H 	c #FDFCFB",
"I 	c #FDFEFF",
"J 	c #FFFFFD",
"K 	c #FDFCFE",
"L 	c #FEF8F7",
"M 	c #F6D1CC",
"N 	c #C85855",
"O 	c #D1322D",
"P 	c #EB5350",
"Q 	c #F77573",
"R 	c #F48985",
"S 	c #EF918E",
"T 	c #F29190",
"U 	c #F5918F",
"V 	c #F99390",
"W 	c #FB8E8C",
"X 	c #FD8080",
"Y 	c #FA6A67",
"Z 	c #EE4742",
"` 	c #DB2623",
" .	c #D14542",
"..	c #F1BDB9",
"+.	c #FEF7F5",
"@.	c #FCFCFE",
"#.	c #FDFCFC",
"$.	c #FCFEFD",
"%.	c #FBFDFC",
"&.	c #FEFCFA",
"*.	c #EAB9B6",
"=.	c #BD3A38",
"-.	c #D33D3F",
";.	c #EA7A75",
">.	c #EFACA9",
",.	c #F3C7C7",
"'.	c #F7D8D6",
").	c #F6DDD8",
"!.	c #F7D9D5",
"~.	c #F1CBC9",
"{.	c #EFBEBE",
"].	c #EDA3A6",
"^.	c #EE9191",
"/.	c #F78583",
"(.	c #FA716C",
"_.	c #F64D4A",
":.	c #E52522",
"<.	c #CB2C2D",
"[.	c #EBBAB8",
"}.	c #FDFAF9",
"|.	c #FCFDFE",
"1.	c #FFFEFE",
"2.	c #FEFEFF",
"3.	c #FBFCFE",
"4.	c #FDFCF9",
"5.	c #F2D2CF",
"6.	c #A43634",
"7.	c #D87673",
"8.	c #F7CDCA",
"9.	c #FFF3F1",
"0.	c #FCF8F8",
"a.	c #FDFBFD",
"b.	c #FEFCFC",
"c.	c #FEFCFB",
"d.	c #FFFAF8",
"e.	c #FFF6F4",
"f.	c #F8E1E2",
"g.	c #F1B8B6",
"h.	c #F08685",
"i.	c #F76A66",
"j.	c #F3403B",
"k.	c #E71E1C",
"l.	c #C82926",
"m.	c #F3CFCC",
"n.	c #FCFCFB",
"o.	c #FDFFFF",
"p.	c #FAF2F1",
"q.	c #A26E6D",
"r.	c #E5B8B3",
"s.	c #FFF3F0",
"t.	c #FCF5F4",
"u.	c #CBA7A7",
"v.	c #9D605E",
"w.	c #914F4D",
"x.	c #B37B79",
"y.	c #ECD5D3",
"z.	c #FEFAFA",
"A.	c #FEF5F6",
"B.	c #F8D2CF",
"C.	c #E9807D",
"D.	c #F3514E",
"E.	c #F22C2D",
"F.	c #DF1214",
"G.	c #D06060",
"H.	c #FEF0EF",
"I.	c #FBFEFD",
"J.	c #FDFFFE",
"K.	c #FCFCFA",
"L.	c #FEFBFB",
"M.	c #DACFCF",
"N.	c #E2D3D1",
"O.	c #FEFCF9",
"P.	c #FBFDFE",
"Q.	c #FAFDFC",
"R.	c #FAEDE9",
"S.	c #AF615C",
"T.	c #AB1E1B",
"U.	c #C7221F",
"V.	c #CB2321",
"W.	c #BB1B1A",
"X.	c #961A18",
"Y.	c #CD9A93",
"Z.	c #FDFBF8",
"`.	c #F8D8D1",
" +	c #E46763",
".+	c #F13535",
"++	c #EA1714",
"@+	c #BD1D18",
"#+	c #EFC9C8",
"$+	c #FDFEFA",
"%+	c #FEFDFB",
"&+	c #F3EFED",
"*+	c #FFFDFC",
"=+	c #C8837E",
"-+	c #B91611",
";+	c #EA332D",
">+	c #FA615C",
",+	c #FD6965",
"'+	c #F14540",
")+	c #D71812",
"!+	c #AA221A",
"~+	c #F2D5D2",
"{+	c #F1AAA5",
"]+	c #E43835",
"^+	c #E81A14",
"/+	c #BD0E0B",
"(+	c #D59390",
"_+	c #FFFEFF",
":+	c #FDFDFB",
"<+	c #FFFEFC",
"[+	c #FBFBFD",
"}+	c #FEF8F6",
"|+	c #8E2424",
"1+	c #CB1511",
"2+	c #F24039",
"3+	c #FA6C6A",
"4+	c #FD837F",
"5+	c #FC6E69",
"6+	c #E82321",
"7+	c #C4100B",
"8+	c #C27F7E",
"9+	c #FDFBFB",
"0+	c #E7BFBD",
"a+	c #BF2A26",
"b+	c #DA1611",
"c+	c #B90B08",
"d+	c #C17872",
"e+	c #FCFDFB",
"f+	c #FDFDFC",
"g+	c #FCFDFC",
"h+	c #F8E8E6",
"i+	c #791314",
"j+	c #B50C08",
"k+	c #DD1B13",
"l+	c #E92C26",
"m+	c #F5544F",
"n+	c #FE6562",
"o+	c #E72625",
"p+	c #BF0C08",
"q+	c #BD6D69",
"r+	c #FEFAF8",
"s+	c #B49995",
"t+	c #981C18",
"u+	c #C80F0B",
"v+	c #AD0908",
"w+	c #BF7973",
"x+	c #FEFDFE",
"y+	c #FDFFFC",
"z+	c #FCF5F3",
"A+	c #651A1A",
"B+	c #900706",
"C+	c #B80807",
"D+	c #CF0E0A",
"E+	c #E12923",
"F+	c #E63531",
"G+	c #C81612",
"H+	c #A00808",
"I+	c #BC837F",
"J+	c #FEFBFA",
"K+	c #FEFDFA",
"L+	c #6D4F4B",
"M+	c #88100C",
"N+	c #B40B06",
"O+	c #9A090B",
"P+	c #C58D8B",
"Q+	c #FDFBFA",
"R+	c #FDFEFB",
"S+	c #FBFDFB",
"T+	c #FBFEFC",
"U+	c #F9FDFA",
"V+	c #FEFBF7",
"W+	c #8D6461",
"X+	c #5D0605",
"Y+	c #820607",
"Z+	c #9D0606",
"`+	c #A80906",
" @	c #A30A05",
".@	c #910805",
"+@	c #750F14",
"@@	c #DDC0C1",
"#@	c #FEF9F9",
"$@	c #B9A7A9",
"%@	c #4C0707",
"&@	c #920D0A",
"*@	c #9E0703",
"=@	c #871316",
"-@	c #E5CBCA",
";@	c #FBFDF9",
">@	c #FDFDF8",
",@	c #F1E6E4",
"'@	c #8E6867",
")@	c #B8918D",
"!@	c #61302B",
"~@	c #4C0303",
"{@	c #610405",
"]@	c #6A0403",
"^@	c #690604",
"/@	c #610D0C",
"(@	c #B08688",
"_@	c #FDF8F5",
":@	c #C9C3C1",
"<@	c #441E20",
"[@	c #6E0709",
"}@	c #940707",
"|@	c #880705",
"1@	c #944F4B",
"2@	c #FAEFED",
"3@	c #FFFCFB",
"4@	c #D8C5C4",
"5@	c #FDF2F0",
"6@	c #FEFAFB",
"7@	c #D8BAB8",
"8@	c #6E1012",
"9@	c #6B0D09",
"0@	c #651B17",
"a@	c #591B1A",
"b@	c #5F2624",
"c@	c #501815",
"d@	c #7E4F4F",
"e@	c #CCB3B3",
"f@	c #F9F1ED",
"g@	c #B2A5A3",
"h@	c #2C1615",
"i@	c #420504",
"j@	c #790A06",
"k@	c #810803",
"l@	c #721815",
"m@	c #E1C9C3",
"n@	c #FEFDFF",
"o@	c #FCFEF9",
"p@	c #FEFCF8",
"q@	c #E6CFCC",
"r@	c #A96666",
"s@	c #E0ADAC",
"t@	c #FCE3DF",
"u@	c #AE726F",
"v@	c #8C0A08",
"w@	c #9A0A05",
"x@	c #840604",
"y@	c #650504",
"z@	c #50110C",
"A@	c #8A605D",
"B@	c #E2D0D0",
"C@	c #C5AFAE",
"D@	c #6B4543",
"E@	c #370504",
"F@	c #470404",
"G@	c #680A07",
"H@	c #740906",
"I@	c #671310",
"J@	c #C8A6A2",
"K@	c #FEFBF9",
"L@	c #D9ABA9",
"M@	c #9B3031",
"N@	c #AC3C3D",
"O@	c #901B1B",
"P@	c #9B0504",
"Q@	c #A70804",
"R@	c #A00805",
"S@	c #930C0B",
"T@	c #710E0D",
"U@	c #490505",
"V@	c #4D1516",
"W@	c #4E0907",
"X@	c #5A0705",
"Y@	c #610706",
"Z@	c #670704",
"`@	c #680705",
" #	c #64171A",
".#	c #C3A3A3",
"+#	c #FDF7F6",
"@#	c #FDFAF7",
"##	c #EDD1D1",
"$#	c #9C4749",
"%#	c #8B0605",
"&#	c #A40603",
"*#	c #A50703",
"=#	c #9C0603",
"-#	c #890202",
";#	c #6D0303",
">#	c #520302",
",#	c #5B0705",
"'#	c #6A0B08",
")#	c #660705",
"!#	c #5D0706",
"~#	c #520C09",
"{#	c #73413D",
"]#	c #E0CACB",
"^#	c #C29894",
"/#	c #890806",
"(#	c #A80704",
"_#	c #A00603",
":#	c #8C0404",
"<#	c #6E0405",
"[#	c #500805",
"}#	c #560A08",
"|#	c #4F0706",
"1#	c #622726",
"2#	c #8F6868",
"3#	c #C9B6B3",
"4#	c #FBF5F2",
"5#	c #FEFEFB",
"6#	c #FEF8F8",
"7#	c #9B5352",
"8#	c #990906",
"9#	c #A80604",
"0#	c #990404",
"a#	c #7A0507",
"b#	c #7B3A3A",
"c#	c #B29892",
"d#	c #B09995",
"e#	c #BBA3A5",
"f#	c #DFD0D0",
"g#	c #F3EAE9",
"h#	c #FBFCFC",
"i#	c #FEFFFC",
"j#	c #FFFDFE",
"k#	c #F8E6E7",
"l#	c #872224",
"m#	c #A30803",
"n#	c #A10604",
"o#	c #840503",
"p#	c #6C221D",
"q#	c #E5D3D0",
"r#	c #FFFBFA",
"s#	c #FBFEFB",
"t#	c #D8B9B7",
"u#	c #890E0E",
"v#	c #A60806",
"w#	c #910706",
"x#	c #6C0D0D",
"y#	c #CAA7A4",
"z#	c #FDF9F8",
"A#	c #B97774",
"B#	c #960A08",
"C#	c #9A0707",
"D#	c #740807",
"E#	c #A37676",
"F#	c #FBFEFE",
"G#	c #FBFFFF",
"H#	c #FEF5F4",
"I#	c #9D4543",
"J#	c #9B0907",
"K#	c #830707",
"L#	c #8C4846",
"M#	c #FBF2F0",
"N#	c #FEFCFD",
"O#	c #ECD3D2",
"P#	c #8A1C19",
"Q#	c #940908",
"R#	c #7F2927",
"S#	c #EED5D3",
"T#	c #D6A5A3",
"U#	c #8A0E0C",
"V#	c #811414",
"W#	c #D5B8B2",
"X#	c #FFF9F7",
"Y#	c #A95E5B",
"Z#	c #7E100E",
"`#	c #BB8683",
" $	c #FDFBF6",
".$	c #FEF3F0",
"+$	c #7C211E",
"@$	c #985755",
"#$	c #FBF1EF",
"$$	c #FDFFFB",
"%$	c #FEFFFB",
"&$	c #E4C4C4",
"*$	c #833A39",
"=$	c #F1DDDC",
"-$	c #B39496",
";$	c #E7CFCD",
">$	c #E5D9D8",
",$	c #FCFDFF",
"  . + @ # $ % & * = - ; > , ' ) ! ~ { ] ^ / ( _ : < [ } | _ 1 + ",
". + + + _ $ ( _ 2 $ 3 4 5 6 7 8 9 0 a b c d e f g h i / j k % l ",
"+ l l + [ m 3 : n o p q r s t u v w x y z A B C D E F G H I 2 J ",
"+ + + _ % % = K L M N O P Q R S T U V W X Y Z `  ...+.@.#.% $.l ",
"J l + @ %.g $.&.*.=.-.;.>.,.'.).!.~.{.].^./.(._.:.<.[.}.|.G 1.2.",
"+ l l 2.3.%.4.5.6.7.8.9.0.a.b.c.f d.d.e.f.g.h.i.j.k.l.m.n.= j o.",
"l + J @ k H p.q.r.s.4.|.@.|.t.u.v.w.x.y.z.A.B.C.D.E.F.G.H.I.= . ",
"J.+ l   K.L.M.N.O.H , P.Q.R.S.T.U.V.W.X.Y.Z.O.`. +.+++@+#+1 h . ",
"+ l +   $+%+&+*+|.k n @.Z.=+-+;+>+,+'+)+!+~+n.O.{+]+^+/+(+L.k . ",
"+ l _+J F :+4.<+_ = ( [+}+|+1+2+3+4+5+6+7+8+9+: 0+a+b+c+d+c.k + ",
"J l J = %.:+e+n _ f+g+|.h+i+j+k+l+m+n+o+p+q+r+:+s+t+u+v+w+&.x++ ",
"l l J @ 2.y+J.@.I k $ % z+A+B+C+D+E+F+G+H+I+J+K+L+M+N+O+P+Q+_ @ ",
"+ l l l ( ( R+S+T+2 %.U+V+W+X+Y+Z+`+ @.@+@@@#@$@%@&@*@=@-@c.x+  ",
"@ J + l $ ( g+;@>@$ k ,@'@)@!@~@{@]@^@/@(@_@:@<@[@}@|@1@2@x+$ + ",
"  + + l :+3 3@4@5@6@b.7@8@9@0@a@b@c@d@e@f@g@h@i@j@k@l@m@%+n@f+_+",
"+ + +   o@:+p@q@r@s@t@u@v@w@x@y@z@A@B@C@D@E@F@G@H@I@J@K@% . = J ",
"l + + @ G G f+f L@M@N@O@P@Q@R@S@T@U@V@W@X@Y@Z@`@ #.#+#@.% I I l ",
"J + + . % k 2.e+@###$#%#&#*#=#-#;#>#,#'#)#!#~#{#]#6@#.k m _ _+_+",
". + + + _ _ _ F g+4 ^#/#(#_#:#<#>#[#}#|#1#2#3#4#> _+. . @ _+_+_+",
". . + l ( 3 5#n k 6#7#8#9#0#a#b#c#d#e#f#g#H : h#2.+ o.+ _+l     ",
"i#@ + l J j#_ g+$ k#l#m#n#o#p#q#r#%+x+x+T+s#f+1 . + + + + + + + ",
". + + +   l + @.c.t#u#v#w#x#y#O.x+_+. % J._ _+_ . . + + + + + + ",
"+ + _++ J.( _+I z#A#B#C#D#E#L.F#x+: @ @ G#J.% _ _+_+_++ + + + + ",
". + + + + [ _ = H#I#J#K#L#M#h N#$ $._ _+_ _ _ _ + + + + + + + + ",
". J l + 2.n@x+= O#P#Q#R#S#1 h %+1 I.J.. x+x+_ _ + + + + + + + + ",
"+ l l + 2.= 3 c.T#U#V#W#;@K N#3 _ + . . _++ . + + _+_++ + + + + ",
"l l l @ J.# 5#X#Y#Z#`# $$.a.(   % . + l _++ + l l l l + + + + + ",
"i#l + .   ( <+.$+$@$#$, K f+$$R+J.@ + + + + + + + + + + + + + + ",
"+ + _+l ( %$<+&$*$=$1 f+% $.y+J.$.@ + + + + + + + + + + + + + + ",
"+ + + l 3 :+*+-$;$b.2 . I.I.J.J.% + + + + + + + + + + + + + + + ",
"+ + + ( 3 3 > >$O.$ = I # $.,$$.$.+ + + + + + + + + + + + + + + ",
"+ + . l + + _+j y+( l l l _+2.. + + _+. + + + + + + + + + + + + "};
