/* XPM */
static char * xyz1_xpm[] = {
"32 32 46 1",
" 	c #D4D0C8",
".	c #000000",
"+	c #CDD1C2",
"@	c #3CF238",
"#	c #91DF89",
"$	c #00FF00",
"%	c #77E570",
"&	c #28F626",
"*	c #14FB13",
"=	c #B9D6AF",
"-	c #9FDC96",
";	c #EF4E4B",
">	c #E4827D",
",	c #C7D3BB",
"'	c #67E169",
")	c #515EDC",
"!	c #C7C3CB",
"~	c #F43432",
"{	c #FF0000",
"]	c #FA1A19",
"^	c #CDC9CA",
"/	c #3C3BEF",
"(	c #0F07F5",
"_	c #CF0030",
":	c #DBAFA9",
"<	c #0D0DFC",
"[	c #B094BE",
"}	c #DF9C96",
"|	c #F72726",
"1	c #F2413F",
"2	c #DCA9A2",
"3	c #8482DD",
"4	c #2F2EF3",
"5	c #ACA9D2",
"6	c #1414FA",
"7	c #2827F5",
"8	c #1B1AF8",
"9	c #B3AFD1",
"0	c #D8BCB5",
"a	c #9F9CD6",
"b	c #0000FF",
"c	c #0707FD",
"d	c #504EEA",
"e	c #918FD9",
"f	c #A5A2D4",
"g	c #6462E5",
"                                ",
"                                ",
"                                ",
"             ... ..             ",
"        +    ..  ..             ",
"        @+   .. ...             ",
"       #$%  ..  ..              ",
"       &$*+ ..  .. .            ",
"      #$$$% .. .....            ",
"      &$$$*+......              ",
"       =$-    ...               ",
"       =$-   . ..               ",
"       =$-   . .       ... ..   ",
"       =$-   ..       . ... .   ",
"       =$-           .  ..      ",
"       =$-          .   ..      ",
"       =$-          .   ..  .   ",
"       =$-          .  ...  .   ",
"       =$-          ...  ...    ",
"       =$-                      ",
"       =$-                      ",
"       =$-            ;>        ",
"       ,')!           ~{]>      ",
"       ^/(_{{{{{{{{{{{{{{{]:    ",
"      ^/<[}}}}}}}}}}}}|{{12     ",
"   3!!4<5             ~12       ",
"   67789              0         ",
"  abbc9                         ",
"  dbbb/^                        ",
" ^<b6de^                        ",
" fgf                            ",
"                                "};
