/* XPM */
static char * xyz2_xpm[] = {
"32 32 42 1",
" 	c #D4D0C8",
".	c #000000",
"+	c #CDD1C2",
"@	c #3CF238",
"#	c #91DF89",
"$	c #00FF00",
"%	c #77E570",
"&	c #28F626",
"*	c #14FB13",
"=	c #B9D6AF",
"-	c #9FDC96",
";	c #B3AFD1",
">	c #C0BCCD",
",	c #7775E0",
"'	c #2121F6",
")	c #4341EE",
"!	c #A5A2D4",
"~	c #0000FF",
"{	c #8482DD",
"]	c #C7C3CB",
"^	c #2827F5",
"/	c #504EEA",
"(	c #6462E5",
"_	c #918FD9",
":	c #6A68E4",
"<	c #5E82C1",
"[	c #EF4E4B",
"}	c #E4827D",
"|	c #C7D3BB",
"1	c #6AE864",
"2	c #343CE8",
"3	c #F43432",
"4	c #FF0000",
"5	c #FA1A19",
"6	c #EA6864",
"7	c #DBAFA9",
"8	c #D9B6AF",
"9	c #DF9C96",
"0	c #F72726",
"a	c #F2413F",
"b	c #DCA9A2",
"c	c #D8BCB5",
"                                ",
"                                ",
"                                ",
"           ... ..               ",
"           ..  ..               ",
"           .. ...               ",
"          ..  ..                ",
"      +   ..  .. .              ",
"      @+  .. .....              ",
"     #$%  ......                ",
"     &$*+   ...                 ",
"    #$$$%  . ..                 ",
"    &$$$*+ . .                  ",
"     =$-   ..                   ",
"     =$-                        ",
"     =$-               ... ..   ",
"     =$-              . ... .   ",
"     =$-      ;      .  ..      ",
"     =$-   >,')     .   ..      ",
"     =$- !)~~~{     .   ..  .   ",
"     =$- ]^~~~>     .  ...  .   ",
"     =$-  /~~^      ...  ...    ",
"     =$- (~_):                  ",
"     =$-:~{  >                  ",
"     =$<~,         [}           ",
"     |12:          345}         ",
"      6444444444444444457       ",
"      8999999999999044ab        ",
"                   3ab          ",
"                   c            ",
"                                ",
"                                "};
