/* XPM */
static char * yzx1_xpm[] = {
"32 32 44 1",
" 	c #D4D0C8",
".	c #000000",
"+	c #CDC9CA",
"@	c #3C3BEF",
"#	c #918FD9",
"$	c #0000FF",
"%	c #7775E0",
"&	c #2827F5",
"*	c #1414FA",
"=	c #B9B6CF",
"-	c #9F9CD6",
";	c #C7C3CB",
">	c #6F65DD",
",	c #E0505B",
"'	c #D7C3BB",
")	c #35F332",
"!	c #84E27D",
"~	c #D5C9C2",
"{	c #F33B38",
"]	c #F60F06",
"^	c #30CF00",
"/	c #00FF00",
"(	c #1BF919",
"_	c #B3D7A9",
":	c #FC0D0D",
"<	c #C6AE8E",
"[	c #9FDC96",
"}	c #43F03F",
"|	c #ACD9A2",
"1	c #E4827D",
"2	c #F62E2C",
"3	c #DCA9A2",
"4	c #FB1413",
"5	c #F72726",
"6	c #FA1A19",
"7	c #DBAFA9",
"8	c #C0D4B5",
"9	c #DF9C96",
"0	c #FF0000",
"a	c #FE0706",
"b	c #EF4E4B",
"c	c #E18F89",
"d	c #DDA29C",
"e	c #EB625E",
"                                ",
"                                ",
"                                ",
"               ....             ",
"        +     ....              ",
"        @+   .   .              ",
"       #$%  .   .               ",
"       &$*+ .  ... .            ",
"      #$$$%   ......            ",
"      &$$$*+ .  ..              ",
"       =$-                      ",
"       =$-                      ",
"       =$-                      ",
"       =$-                      ",
"       =$-           ... ..     ",
"       =$-           ..  ..     ",
"       =$-           .. ...     ",
"       =$-          ..  ..      ",
"       =$-          ..  .. .    ",
"       =$-          .. .....    ",
"       =$-          ......      ",
"       =$-            ...       ",
"       ;>,'          .)..!      ",
"       ~{]^//////////././/(_    ",
"      ~{:<[[[[[[[[[[[..//}|     ",
"   1''2:3             )}|       ",
"   45567              8         ",
"  900a7                         ",
"  b000{~                        ",
" ~:04bc~                        ",
" ded                            ",
"                                "};
