/* XPM */
static char * yzx2_xpm[] = {
"32 32 47 1",
" 	c #D4D0C8",
".	c #000000",
"+	c #CDC9CA",
"@	c #3C3BEF",
"#	c #918FD9",
"$	c #0000FF",
"%	c #7775E0",
"&	c #2827F5",
"*	c #1414FA",
"=	c #B9B6CF",
"-	c #9F9CD6",
";	c #D9B6AF",
">	c #E86E6A",
",	c #EF4E4B",
"'	c #D5C9C2",
")	c #E4827D",
"!	c #F43432",
"~	c #FF0000",
"{	c #EA6864",
"]	c #E09590",
"^	c #FC0D0D",
"/	c #DCA9A2",
"(	c #E77570",
"_	c #FA1A19",
":	c #FE0706",
"<	c #F04845",
"[	c #F2413F",
"}	c #DDA29C",
"|	c #50ED4B",
"1	c #AB88BB",
"2	c #F33B38",
"3	c #35F332",
"4	c #84E27D",
"5	c #C7C3CB",
"6	c #6A68E4",
"7	c #62C573",
"8	c #807F00",
"9	c #08F700",
"0	c #00FF00",
"a	c #1BF919",
"b	c #B3D7A9",
"c	c #B9D6AF",
"d	c #9FDC96",
"e	c #28F626",
"f	c #43F03F",
"g	c #ACD9A2",
"h	c #C0D4B5",
"                                ",
"                                ",
"                                ",
"             ....               ",
"            ....                ",
"           .   .                ",
"          .   .                 ",
"          .  ... .              ",
"      +     ......              ",
"      @+   .  ..                ",
"     #$%                        ",
"     &$*+                       ",
"    #$$$%                       ",
"    &$$$*+                      ",
"     =$-                        ",
"     =$-             ... ..     ",
"     =$-             ..  ..     ",
"     =$-             .. ...     ",
"     =$-            ..  ..      ",
"     =$-    ;>,     ..  .. .    ",
"     =$- ')!~~{     .. .....    ",
"     =$- ]^~~~/     ......      ",
"     =$-  (~~_        ...       ",
"     =$- /:<_,       . ..       ",
"     =$-/^[ ;}      |. .        ",
"     =$1_2'         3..4        ",
"     5678900000000000000ab      ",
"       cdddddddddddde00fg       ",
"                    3fg         ",
"                    h           ",
"                                ",
"                                "};
