/* XPM */
static char * zoomin_xpm[] = {
"22 22 163 2",
"  	c None",
". 	c #000000",
"+ 	c #161C23",
"@ 	c #323E4A",
"# 	c #495A69",
"$ 	c #5D6E7E",
"% 	c #617385",
"& 	c #526374",
"* 	c #3B4A58",
"= 	c #1B232B",
"- 	c #28323D",
"; 	c #61707D",
"> 	c #96A4B2",
", 	c #ABB9C7",
"' 	c #B0BFCC",
") 	c #A7B8CA",
"! 	c #97ACC0",
"~ 	c #879EB3",
"{ 	c #6C8196",
"] 	c #384755",
"^ 	c #7A8895",
"/ 	c #B7C3CD",
"( 	c #C8D3DD",
"_ 	c #BCCAD6",
": 	c #AEC0D1",
"< 	c #A3B8CB",
"[ 	c #9BB2C7",
"} 	c #92ACC3",
"| 	c #8CA6BE",
"1 	c #839FB7",
"2 	c #3D4C5B",
"3 	c #61717E",
"4 	c #BAC5CF",
"5 	c #CED9E1",
"6 	c #BECDD9",
"7 	c #B0C2D3",
"8 	c #97B1C8",
"9 	c #92AEC7",
"0 	c #8CA8C2",
"a 	c #87A4C0",
"b 	c #7F97B0",
"c 	c #202931",
"d 	c #9BA9B5",
"e 	c #CFD9E1",
"f 	c #C1CEDA",
"g 	c #B2C3D2",
"h 	c #A6BBCD",
"i 	c #95B1CA",
"j 	c #93AFC9",
"k 	c #8CAAC5",
"l 	c #82A0BE",
"m 	c #8DAAC5",
"n 	c #546474",
"o 	c #495866",
"p 	c #B5C1CC",
"q 	c #A6BACE",
"r 	c #9EB5CA",
"s 	c #95B1CB",
"t 	c #92AFCA",
"u 	c #8CA9C6",
"v 	c #7F9EBD",
"w 	c #7E9DBB",
"x 	c #8399AC",
"y 	c #5B6D7D",
"z 	c #BAC7D3",
"A 	c #B3C3D2",
"B 	c #7797B7",
"C 	c #688AAD",
"D 	c #A7BFD6",
"E 	c #607182",
"F 	c #B0C0CE",
"G 	c #A8BBCC",
"H 	c #5B7EA4",
"I 	c #ADC4DA",
"J 	c #506172",
"K 	c #9FB3C3",
"L 	c #A0B6C9",
"M 	c #99B1C7",
"N 	c #94AFC7",
"O 	c #95B0CA",
"P 	c #88A7C4",
"Q 	c #7C9BBB",
"R 	c #6A8CAF",
"S 	c #55789F",
"T 	c #6183A8",
"U 	c #8CA2B5",
"V 	c #3A4956",
"W 	c #8FA3B6",
"X 	c #9CB3C8",
"Y 	c #96AFC6",
"Z 	c #93AEC7",
"` 	c #91AEC8",
" .	c #7C9BBC",
"..	c #5679A0",
"+.	c #416690",
"@.	c #7D9DBF",
"#.	c #5D6C7B",
"$.	c #6D8294",
"%.	c #96AEC5",
"&.	c #96AEC7",
"*.	c #91AEC6",
"=.	c #8DAAC6",
"-.	c #6B8CAF",
";.	c #577AA0",
">.	c #416591",
",.	c #587CA3",
"'.	c #91A8C1",
").	c #252C33",
"!.	c #374554",
"~.	c #869FB7",
"{.	c #93ADC5",
"].	c #8EA9C3",
"^.	c #86A4C0",
"/.	c #7C9BB9",
"(.	c #6B8CAE",
"_.	c #587AA0",
":.	c #436892",
"<.	c #597CA3",
"[.	c #94AFCA",
"}.	c #4B5865",
"|.	c #3C4B5A",
"1.	c #8097AC",
"2.	c #94AFC9",
"3.	c #87A3C0",
"4.	c #7191B1",
"5.	c #6182A5",
"6.	c #6485A9",
"7.	c #7F9DBE",
"8.	c #91A8BF",
"9.	c #0C0B07",
"0.	c #526272",
"a.	c #8095A8",
"b.	c #A4BBD1",
"c.	c #A9C0D6",
"d.	c #8A9FB2",
"e.	c #5C6C7A",
"f.	c #130F09",
"g.	c #AC925F",
"h.	c #7E6E4E",
"i.	c #0B0801",
"j.	c #936D21",
"k.	c #B69249",
"l.	c #C2A467",
"m.	c #7B6945",
"n.	c #593C00",
"o.	c #9B6905",
"p.	c #AA802B",
"q.	c #B48F44",
"r.	c #715A2D",
"s.	c #483000",
"t.	c #825600",
"u.	c #966400",
"v.	c #9F6F0F",
"w.	c #64470C",
"x.	c #362400",
"y.	c #624200",
"z.	c #734D00",
"A.	c #805600",
"B.	c #563900",
"C.	c #271A00",
"D.	c #493100",
"E.	c #241800",
"F.	c #241700",
"          . . . . . .                       ",
"      . + @ # $ % & * = .                   ",
"    . - ; > , ' ) ! ~ { ] .                 ",
"  . - ^ / ( _ : < [ } | 1 2 .               ",
"  + 3 4 5 6 7 . . 8 9 0 a b c               ",
". @ d e f g h . . i j k l m n .             ",
". o p f g q r . . s t u v w x .             ",
". y z A . . . . . . . . B C D .             ",
". E F G . . . . . . . . C H I .             ",
". J K L M N O . . P Q R S T U .             ",
". V W X Y Z ` . .  .R ..+.@.#..             ",
"  = $.%.&.*.=.. . -.;.>.,.'.).              ",
"  . !.~.{.].^./.(._.:.<.[.}..               ",
"    . |.1.2.3.4.5.6.7.8.}.. . 9..           ",
"      . c 0.a.b.c.d.e.).. . f.g.h..         ",
"          . . . . . .     i.j.k.l.m..       ",
"                          . n.o.p.q.r..     ",
"                            . s.t.u.v.w..   ",
"                              . x.y.z.A.B.. ",
"                                . C.D.n.x.. ",
"                                  . E.F..   ",
"                                    . .     "};
