/* XPM */
static char * zoomout_xpm[] = {
"22 22 172 2",
"  	c None",
". 	c #000000",
"+ 	c #161C23",
"@ 	c #323E4A",
"# 	c #495A69",
"$ 	c #5D6E7E",
"% 	c #617385",
"& 	c #526374",
"* 	c #3B4A58",
"= 	c #1B232B",
"- 	c #28323D",
"; 	c #61707D",
"> 	c #96A4B2",
", 	c #ABB9C7",
"' 	c #B0BFCC",
") 	c #A7B8CA",
"! 	c #97ACC0",
"~ 	c #879EB3",
"{ 	c #6C8196",
"] 	c #384755",
"^ 	c #7A8895",
"/ 	c #B7C3CD",
"( 	c #C8D3DD",
"_ 	c #BCCAD6",
": 	c #AEC0D1",
"< 	c #A3B8CB",
"[ 	c #9BB2C7",
"} 	c #92ACC3",
"| 	c #8CA6BE",
"1 	c #839FB7",
"2 	c #3D4C5B",
"3 	c #61717E",
"4 	c #BAC5CF",
"5 	c #CED9E1",
"6 	c #BECDD9",
"7 	c #B0C2D3",
"8 	c #A4B9CD",
"9 	c #9DB5CA",
"0 	c #97B1C8",
"a 	c #92AEC7",
"b 	c #8CA8C2",
"c 	c #87A4C0",
"d 	c #7F97B0",
"e 	c #202931",
"f 	c #9BA9B5",
"g 	c #CFD9E1",
"h 	c #C1CEDA",
"i 	c #B2C3D2",
"j 	c #A6BBCD",
"k 	c #98B2C9",
"l 	c #95B1CA",
"m 	c #93AFC9",
"n 	c #8CAAC5",
"o 	c #82A0BE",
"p 	c #8DAAC5",
"q 	c #546474",
"r 	c #495866",
"s 	c #B5C1CC",
"t 	c #A6BACE",
"u 	c #9EB5CA",
"v 	c #99B3C9",
"w 	c #95B1CB",
"x 	c #92AFCA",
"y 	c #8CA9C6",
"z 	c #7F9EBD",
"A 	c #7E9DBB",
"B 	c #8399AC",
"C 	c #5B6D7D",
"D 	c #BAC7D3",
"E 	c #B3C3D2",
"F 	c #7797B7",
"G 	c #688AAD",
"H 	c #A7BFD6",
"I 	c #607182",
"J 	c #B0C0CE",
"K 	c #A8BBCC",
"L 	c #5B7EA4",
"M 	c #ADC4DA",
"N 	c #506172",
"O 	c #9FB3C3",
"P 	c #A0B6C9",
"Q 	c #99B1C7",
"R 	c #94AFC7",
"S 	c #95B0CA",
"T 	c #8FADC9",
"U 	c #88A7C4",
"V 	c #7C9BBB",
"W 	c #6A8CAF",
"X 	c #55789F",
"Y 	c #6183A8",
"Z 	c #8CA2B5",
"` 	c #3A4956",
" .	c #8FA3B6",
"..	c #9CB3C8",
"+.	c #96AFC6",
"@.	c #93AEC7",
"#.	c #91AEC8",
"$.	c #8FACC8",
"%.	c #89A7C4",
"&.	c #7C9BBC",
"*.	c #5679A0",
"=.	c #416690",
"-.	c #7D9DBF",
";.	c #5D6C7B",
">.	c #6D8294",
",.	c #96AEC5",
"'.	c #96AEC7",
").	c #91AEC6",
"!.	c #8DAAC6",
"~.	c #87A5C3",
"{.	c #7B9CBB",
"].	c #6B8CAF",
"^.	c #577AA0",
"/.	c #416591",
"(.	c #587CA3",
"_.	c #91A8C1",
":.	c #252C33",
"<.	c #374554",
"[.	c #869FB7",
"}.	c #93ADC5",
"|.	c #8EA9C3",
"1.	c #86A4C0",
"2.	c #7C9BB9",
"3.	c #6B8CAE",
"4.	c #587AA0",
"5.	c #436892",
"6.	c #597CA3",
"7.	c #94AFCA",
"8.	c #4B5865",
"9.	c #3C4B5A",
"0.	c #8097AC",
"a.	c #94AFC9",
"b.	c #87A3C0",
"c.	c #7191B1",
"d.	c #6182A5",
"e.	c #6485A9",
"f.	c #7F9DBE",
"g.	c #91A8BF",
"h.	c #0C0B07",
"i.	c #526272",
"j.	c #8095A8",
"k.	c #A4BBD1",
"l.	c #A9C0D6",
"m.	c #8A9FB2",
"n.	c #5C6C7A",
"o.	c #130F09",
"p.	c #AC925F",
"q.	c #7E6E4E",
"r.	c #0B0801",
"s.	c #936D21",
"t.	c #B69249",
"u.	c #C2A467",
"v.	c #7B6945",
"w.	c #593C00",
"x.	c #9B6905",
"y.	c #AA802B",
"z.	c #B48F44",
"A.	c #715A2D",
"B.	c #483000",
"C.	c #825600",
"D.	c #966400",
"E.	c #9F6F0F",
"F.	c #64470C",
"G.	c #362400",
"H.	c #624200",
"I.	c #734D00",
"J.	c #805600",
"K.	c #563900",
"L.	c #271A00",
"M.	c #493100",
"N.	c #241800",
"O.	c #241700",
"          . . . . . .                       ",
"      . + @ # $ % & * = .                   ",
"    . - ; > , ' ) ! ~ { ] .                 ",
"  . - ^ / ( _ : < [ } | 1 2 .               ",
"  + 3 4 5 6 7 8 9 0 a b c d e               ",
". @ f g h i j 9 k l m n o p q .             ",
". r s h i t u v l w x y z A B .             ",
". C D E . . . . . . . . F G H .             ",
". I J K . . . . . . . . G L M .             ",
". N O P Q R S x T U V W X Y Z .             ",
". `  ...+.@.#.$.%.&.W *.=.-.;..             ",
"  = >.,.'.).!.~.{.].^./.(._.:.              ",
"  . <.[.}.|.1.2.3.4.5.6.7.8..               ",
"    . 9.0.a.b.c.d.e.f.g.8.. . h..           ",
"      . e i.j.k.l.m.n.:.. . o.p.q..         ",
"          . . . . . .     r.s.t.u.v..       ",
"                          . w.x.y.z.A..     ",
"                            . B.C.D.E.F..   ",
"                              . G.H.I.J.K.. ",
"                                . L.M.w.G.. ",
"                                  . N.O..   ",
"                                    . .     "};
