/* XPM */
static char * zxy1_xpm[] = {
"32 32 46 1",
" 	c #D4D0C8",
".	c #000000",
"+	c #D5C9C2",
"@	c #F33B38",
"#	c #E18F89",
"$	c #FF0000",
"%	c #E77570",
"&	c #F72726",
"*	c #FB1413",
"=	c #D9B6AF",
"-	c #DF9C96",
";	c #504EEA",
">	c #8482DD",
",	c #D7C3BB",
"'	c #E36D61",
")	c #5FDF4D",
"!	c #C7D3BB",
"~	c #3534F1",
"{	c #0000FF",
"]	c #1B1AF8",
"^	c #CDD1C2",
"/	c #3CF238",
"(	c #07F60E",
"_	c #0030CF",
":	c #B3AFD1",
"<	c #0DFC0D",
"[	c #96C4A8",
"}	c #9F9CD6",
"|	c #2827F5",
"1	c #4341EE",
"2	c #ACA9D2",
"3	c #84E27D",
"4	c #2FF52C",
"5	c #ACD9A2",
"6	c #14FB13",
"7	c #28F626",
"8	c #1BF919",
"9	c #B3D7A9",
"0	c #C0BCCD",
"a	c #9FDC96",
"b	c #00FF00",
"c	c #07FE06",
"d	c #50ED4B",
"e	c #91DF89",
"f	c #A5DA9C",
"g	c #64E95E",
"                                ",
"                                ",
"                                ",
"               ... ..           ",
"        +     . ... .           ",
"        @+   .  ..              ",
"       #$%  .   ..              ",
"       &$*+ .   ..  .           ",
"      #$$$% .  ...  .           ",
"      &$$$*+...  ...            ",
"       =$-                      ",
"       =$-                      ",
"       =$-                      ",
"       =$-                      ",
"       =$-             ....     ",
"       =$-            ....      ",
"       =$-           .   .      ",
"       =$-          .   .       ",
"       =$-          .  ... .    ",
"       =$-            ......    ",
"       =$-           .  ..      ",
"       =$-            ;>        ",
"       ,')!           ~{]>      ",
"       ^/(_{{{{{{{{{{{{{{{]:    ",
"      ^/<[}}}}}}}}}}}}|{{12     ",
"   3!!4<5             ~12       ",
"   67789              0         ",
"  abbc9                         ",
"  dbbb/^                        ",
" ^<b6de^                        ",
" fgf                            ",
"                                "};
