/* XPM */
static char * zxy2_xpm[] = {
"32 32 47 1",
" 	c #D4D0C8",
".	c #000000",
"+	c #D5C9C2",
"@	c #F33B38",
"#	c #E18F89",
"$	c #FF0000",
"%	c #E77570",
"&	c #F72726",
"*	c #FB1413",
"=	c #D9B6AF",
"-	c #DF9C96",
";	c #B9D6AF",
">	c #70E66A",
",	c #50ED4B",
"'	c #CDD1C2",
")	c #84E27D",
"!	c #35F332",
"~	c #00FF00",
"{	c #6AE864",
"]	c #98DD90",
"^	c #0DFC0D",
"/	c #ACD9A2",
"(	c #77E570",
"_	c #1BF919",
":	c #07FE06",
"<	c #49EF45",
"[	c #43F03F",
"}	c #A5DA9C",
"|	c #504EEA",
"1	c #8482DD",
"2	c #C3A883",
"3	c #3CF238",
"4	c #3534F1",
"5	c #0000FF",
"6	c #1B1AF8",
"7	c #D7C3BB",
"8	c #EA6864",
"9	c #7960C1",
"0	c #00807F",
"a	c #0008F7",
"b	c #B3AFD1",
"c	c #B9B6CF",
"d	c #9F9CD6",
"e	c #2827F5",
"f	c #4341EE",
"g	c #ACA9D2",
"h	c #C0BCCD",
"                                ",
"                                ",
"                                ",
"             ... ..             ",
"            . ... .             ",
"           .  ..                ",
"          .   ..                ",
"          .   ..  .             ",
"      +   .  ...  .             ",
"      @+  ...  ...              ",
"     #$%                        ",
"     &$*+                       ",
"    #$$$%                       ",
"    &$$$*+                      ",
"     =$-                        ",
"     =$-               ....     ",
"     =$-              ....      ",
"     =$-             .   .      ",
"     =$-            .   .       ",
"     =$-    ;>,     .  ... .    ",
"     =$- ')!~~{       ......    ",
"     =$- ]^~~~/      .  ..      ",
"     =$-  (~~_                  ",
"     =$- /:<_,                  ",
"     =$-/^[ ;}      |1          ",
"     =$2_3'         4561        ",
"     7890a555555555555556b      ",
"       cdddddddddddde55fg       ",
"                    4fg         ",
"                    h           ",
"                                ",
"                                "};
